<svg width="36" height="35" viewBox="0 0 36 35" fill="none" xmlns="http://www.w3.org/2000/svg">
<g clip-path="url(#clip0_2_82)">
<path d="M34.875 32.8125H2.25V28.4375H4.5C4.79837 28.4375 5.08452 28.3223 5.2955 28.1171C5.50647 27.912 5.625 27.6338 5.625 27.3438C5.625 27.0537 5.50647 26.7755 5.2955 26.5704C5.08452 26.3652 4.79837 26.25 4.5 26.25H2.25V22.9688C2.54837 22.9688 2.83452 22.8535 3.0455 22.6484C3.25647 22.4433 3.375 22.1651 3.375 21.875C3.375 21.5849 3.25647 21.3067 3.0455 21.1016C2.83452 20.8965 2.54837 20.7812 2.25 20.7812V17.5H4.5C4.79837 17.5 5.08452 17.3848 5.2955 17.1796C5.50647 16.9745 5.625 16.6963 5.625 16.4062C5.625 16.1162 5.50647 15.838 5.2955 15.6329C5.08452 15.4277 4.79837 15.3125 4.5 15.3125H2.25V12.0312C2.54837 12.0312 2.83452 11.916 3.0455 11.7109C3.25647 11.5058 3.375 11.2276 3.375 10.9375C3.375 10.6474 3.25647 10.3692 3.0455 10.1641C2.83452 9.95898 2.54837 9.84375 2.25 9.84375V6.5625H4.5C4.79837 6.5625 5.08452 6.44727 5.2955 6.24215C5.50647 6.03703 5.625 5.75883 5.625 5.46875C5.625 5.17867 5.50647 4.90047 5.2955 4.69535C5.08452 4.49023 4.79837 4.375 4.5 4.375H2.25V1.09375C2.25 0.803669 2.13147 0.52547 1.9205 0.320352C1.70952 0.115234 1.42337 0 1.125 0C0.826631 0 0.540483 0.115234 0.329505 0.320352C0.118526 0.52547 0 0.803669 0 1.09375L0 32.8125C0 34.0189 1.00912 35 2.25 35H34.875C35.1734 35 35.4595 34.8848 35.6705 34.6796C35.8815 34.4745 36 34.1963 36 33.9062C36 33.6162 35.8815 33.338 35.6705 33.1329C35.4595 32.9277 35.1734 32.8125 34.875 32.8125Z" fill="url(#paint0_linear_2_82)"/>
<path d="M31.5 18.5938C31.7984 18.5938 32.0845 18.4785 32.2955 18.2734C32.5065 18.0683 32.625 17.7901 32.625 17.5V12.0313C32.625 11.9596 32.6172 11.8874 32.6031 11.8169C32.5958 11.7841 32.5834 11.754 32.5738 11.7223C32.5626 11.6856 32.5542 11.6484 32.539 11.6129C32.5227 11.5757 32.5007 11.5413 32.4805 11.5063C32.4653 11.4789 32.4529 11.4505 32.4355 11.4253C32.3526 11.3051 32.2464 11.2018 32.1227 11.1213C32.0963 11.1043 32.067 11.0923 32.0395 11.0775C32.0035 11.0584 31.968 11.037 31.9298 11.0206C31.8932 11.0064 31.855 10.9977 31.8173 10.9867C31.7847 10.9774 31.7537 10.9654 31.72 10.9583C31.6475 10.9448 31.5738 10.9378 31.5 10.9375H25.875C25.5767 10.9375 25.2905 11.0527 25.0795 11.2579C24.8686 11.463 24.75 11.7412 24.75 12.0313C24.75 12.3213 24.8686 12.5995 25.0795 12.8046C25.2905 13.0098 25.5767 13.125 25.875 13.125H28.7843L18 23.6097L15.4204 21.1017C15.2094 20.8967 14.9233 20.7815 14.625 20.7815C14.3267 20.7815 14.0406 20.8967 13.8297 21.1017L8.20466 26.5705C8.09721 26.6714 8.0115 26.7921 7.95254 26.9255C7.89358 27.0589 7.86255 27.2025 7.86125 27.3477C7.85995 27.4929 7.88841 27.6369 7.94498 27.7714C8.00155 27.9058 8.08508 28.0279 8.19071 28.1306C8.29634 28.2333 8.42195 28.3145 8.56021 28.3695C8.69847 28.4245 8.84661 28.4522 8.99598 28.4509C9.14536 28.4496 9.29298 28.4195 9.43024 28.3621C9.56749 28.3048 9.69163 28.2215 9.79541 28.117L14.625 23.4216L17.2047 25.9295C17.4156 26.1346 17.7017 26.2498 18 26.2498C18.2983 26.2498 18.5844 26.1346 18.7954 25.9295L30.375 14.6716V17.5C30.375 17.7901 30.4936 18.0683 30.7045 18.2734C30.9155 18.4785 31.2017 18.5938 31.5 18.5938Z" fill="url(#paint1_linear_2_82)"/>
</g>
<defs>
<linearGradient id="paint0_linear_2_82" x1="18" y1="0" x2="18" y2="35" gradientUnits="userSpaceOnUse">
<stop stop-color="#FFE603"/>
<stop offset="1" stop-color="#FF9900"/>
</linearGradient>
<linearGradient id="paint1_linear_2_82" x1="20.2431" y1="10.9375" x2="20.2431" y2="28.4509" gradientUnits="userSpaceOnUse">
<stop stop-color="#FFE603"/>
<stop offset="1" stop-color="#FF9900"/>
</linearGradient>
<clipPath id="clip0_2_82">
<rect width="36" height="35" fill="white"/>
</clipPath>
</defs>
</svg>
