<svg width="37" height="34" viewBox="0 0 37 34" fill="none" xmlns="http://www.w3.org/2000/svg">
<g clip-path="url(#clip0_1_63)">
<path d="M35.8438 31.875H2.3125V27.625H4.625C4.93166 27.625 5.22575 27.5131 5.44259 27.3138C5.65943 27.1145 5.78125 26.8443 5.78125 26.5625C5.78125 26.2807 5.65943 26.0105 5.44259 25.8112C5.22575 25.6119 4.93166 25.5 4.625 25.5H2.3125V22.3125C2.61916 22.3125 2.91325 22.2006 3.13009 22.0013C3.34693 21.802 3.46875 21.5318 3.46875 21.25C3.46875 20.9682 3.34693 20.698 3.13009 20.4987C2.91325 20.2994 2.61916 20.1875 2.3125 20.1875V17H4.625C4.93166 17 5.22575 16.8881 5.44259 16.6888C5.65943 16.4895 5.78125 16.2193 5.78125 15.9375C5.78125 15.6557 5.65943 15.3855 5.44259 15.1862C5.22575 14.9869 4.93166 14.875 4.625 14.875H2.3125V11.6875C2.61916 11.6875 2.91325 11.5756 3.13009 11.3763C3.34693 11.177 3.46875 10.9068 3.46875 10.625C3.46875 10.3432 3.34693 10.073 3.13009 9.8737C2.91325 9.67444 2.61916 9.5625 2.3125 9.5625V6.375H4.625C4.93166 6.375 5.22575 6.26306 5.44259 6.0638C5.65943 5.86454 5.78125 5.59429 5.78125 5.3125C5.78125 5.03071 5.65943 4.76046 5.44259 4.5612C5.22575 4.36194 4.93166 4.25 4.625 4.25H2.3125V1.0625C2.3125 0.780707 2.19068 0.510456 1.97384 0.311199C1.757 0.111942 1.46291 0 1.15625 0C0.849593 0 0.555497 0.111942 0.338658 0.311199C0.121819 0.510456 0 0.780707 0 1.0625L0 31.875C0 33.0469 1.03716 34 2.3125 34H35.8438C36.1504 34 36.4445 33.8881 36.6613 33.6888C36.8782 33.4895 37 33.2193 37 32.9375C37 32.6557 36.8782 32.3855 36.6613 32.1862C36.4445 31.9869 36.1504 31.875 35.8438 31.875Z" fill="url(#paint0_linear_1_63)"/>
<path d="M32.375 18.0625C32.6817 18.0625 32.9758 17.9506 33.1926 17.7513C33.4095 17.552 33.5313 17.2818 33.5313 17V11.6875C33.5313 11.6179 33.5232 11.5478 33.5088 11.4793C33.5012 11.4474 33.4885 11.4182 33.4787 11.3873C33.4671 11.3517 33.4585 11.3156 33.4428 11.2811C33.4261 11.245 33.4035 11.2115 33.3827 11.1775C33.3671 11.1509 33.3544 11.1233 33.3365 11.0989C33.2513 10.9821 33.1421 10.8818 33.015 10.8035C32.9879 10.787 32.9578 10.7753 32.9295 10.761C32.8925 10.7424 32.856 10.7217 32.8167 10.7058C32.7792 10.6919 32.7398 10.6834 32.7011 10.6728C32.6676 10.6638 32.6358 10.6521 32.6011 10.6452C32.5266 10.6321 32.4509 10.6253 32.375 10.625H26.5938C26.2871 10.625 25.993 10.7369 25.7762 10.9362C25.5594 11.1355 25.4375 11.4057 25.4375 11.6875C25.4375 11.9693 25.5594 12.2395 25.7762 12.4388C25.993 12.6381 26.2871 12.75 26.5938 12.75H29.5839L18.5 22.9351L15.8488 20.4988C15.6319 20.2996 15.3379 20.1877 15.0313 20.1877C14.7247 20.1877 14.4307 20.2996 14.2138 20.4988L8.43258 25.8113C8.32215 25.9093 8.23406 26.0266 8.17346 26.1562C8.11286 26.2858 8.08097 26.4252 8.07963 26.5663C8.0783 26.7074 8.10755 26.8473 8.16569 26.9779C8.22383 27.1085 8.30968 27.2271 8.41825 27.3269C8.52681 27.4266 8.65591 27.5055 8.79801 27.5589C8.94011 27.6124 9.09236 27.6392 9.24589 27.638C9.39941 27.6368 9.55114 27.6075 9.6922 27.5518C9.83327 27.4961 9.96086 27.4152 10.0675 27.3137L15.0313 22.7524L17.6826 25.1887C17.8994 25.3879 18.1935 25.4998 18.5 25.4998C18.8066 25.4998 19.1007 25.3879 19.3175 25.1887L31.2188 14.2524V17C31.2188 17.2818 31.3406 17.552 31.5575 17.7513C31.7743 17.9506 32.0684 18.0625 32.375 18.0625Z" fill="url(#paint1_linear_1_63)"/>
</g>
<defs>
<linearGradient id="paint0_linear_1_63" x1="18.5" y1="0" x2="18.5" y2="34" gradientUnits="userSpaceOnUse">
<stop stop-color="#FFE603"/>
<stop offset="1" stop-color="#FF9900"/>
</linearGradient>
<linearGradient id="paint1_linear_1_63" x1="20.8054" y1="10.625" x2="20.8054" y2="27.6381" gradientUnits="userSpaceOnUse">
<stop stop-color="#FFE603"/>
<stop offset="1" stop-color="#FF9900"/>
</linearGradient>
<clipPath id="clip0_1_63">
<rect width="37" height="34" fill="white"/>
</clipPath>
</defs>
</svg>
