<svg width="129" height="137" viewBox="0 0 129 137" fill="none" xmlns="http://www.w3.org/2000/svg">
<g clip-path="url(#clip0_22_190)">
<path d="M64.5 137C100.122 137 129 106.332 129 68.5002C129 30.6687 100.122 0 64.5 0C28.8776 0 0 30.6687 0 68.5002C0 106.332 28.8776 137 64.5 137Z" fill="black"/>
<path fill-rule="evenodd" clip-rule="evenodd" d="M37.625 99.8495V86.4724C37.625 74.9358 46.0154 65.6455 56.4375 65.6455H72.5625C82.9873 65.6455 91.375 74.9358 91.375 86.4724V99.8495H37.625Z" fill="white"/>
<path d="M64.4489 61.193C71.8406 61.193 77.8327 54.8038 77.8327 46.9222C77.8327 39.0406 71.8406 32.6514 64.4489 32.6514C57.0573 32.6514 51.0652 39.0406 51.0652 46.9222C51.0652 54.8038 57.0573 61.193 64.4489 61.193Z" fill="white"/>
</g>
<defs>
<clipPath id="clip0_22_190">
<rect width="129" height="137" fill="white"/>
</clipPath>
</defs>
</svg>
