<svg width="132" height="137" viewBox="0 0 132 137" fill="none" xmlns="http://www.w3.org/2000/svg">
<g clip-path="url(#clip0_22_284)">
<path d="M66 137C102.451 137 132 106.332 132 68.5002C132 30.6687 102.451 0 66 0C29.5492 0 0 30.6687 0 68.5002C0 106.332 29.5492 137 66 137Z" fill="black"/>
<path fill-rule="evenodd" clip-rule="evenodd" d="M38.5 99.8495V86.4724C38.5 74.9358 47.0855 65.6455 57.75 65.6455H74.25C84.9173 65.6455 93.5 74.9358 93.5 86.4724V99.8495H38.5Z" fill="white"/>
<path d="M65.9477 61.193C73.5112 61.193 79.6427 54.8038 79.6427 46.9222C79.6427 39.0406 73.5112 32.6514 65.9477 32.6514C58.3841 32.6514 52.2527 39.0406 52.2527 46.9222C52.2527 54.8038 58.3841 61.193 65.9477 61.193Z" fill="white"/>
</g>
<defs>
<clipPath id="clip0_22_284">
<rect width="132" height="137" fill="white"/>
</clipPath>
</defs>
</svg>
