<svg width="129" height="139" viewBox="0 0 129 139" fill="none" xmlns="http://www.w3.org/2000/svg">
<g clip-path="url(#clip0_22_170)">
<path d="M64.5 139C100.122 139 129 107.884 129 69.5002C129 31.1164 100.122 0 64.5 0C28.8776 0 0 31.1164 0 69.5002C0 107.884 28.8776 139 64.5 139Z" fill="black"/>
<path fill-rule="evenodd" clip-rule="evenodd" d="M37.625 101.308V87.7354C37.625 76.0304 46.0154 66.6045 56.4375 66.6045H72.5625C82.9873 66.6045 91.375 76.0304 91.375 87.7354V101.308H37.625Z" fill="white"/>
<path d="M64.4489 62.0867C71.8406 62.0867 77.8327 55.6042 77.8327 47.6076C77.8327 39.611 71.8406 33.1284 64.4489 33.1284C57.0573 33.1284 51.0652 39.611 51.0652 47.6076C51.0652 55.6042 57.0573 62.0867 64.4489 62.0867Z" fill="white"/>
</g>
<defs>
<clipPath id="clip0_22_170">
<rect width="129" height="139" fill="white"/>
</clipPath>
</defs>
</svg>
