<svg width="132" height="141" viewBox="0 0 132 141" fill="none" xmlns="http://www.w3.org/2000/svg">
<g clip-path="url(#clip0_22_244)">
<path d="M66 141C102.451 141 132 109.436 132 70.5002C132 31.5641 102.451 0 66 0C29.5492 0 0 31.5641 0 70.5002C0 109.436 29.5492 141 66 141Z" fill="black"/>
<path fill-rule="evenodd" clip-rule="evenodd" d="M38.5 102.766V88.9984C38.5 77.125 47.0855 67.5635 57.75 67.5635H74.25C84.9173 67.5635 93.5 77.125 93.5 88.9984V102.766H38.5Z" fill="white"/>
<path d="M65.9477 62.9805C73.5112 62.9805 79.6427 56.4046 79.6427 48.293C79.6427 40.1813 73.5112 33.6055 65.9477 33.6055C58.3841 33.6055 52.2527 40.1813 52.2527 48.293C52.2527 56.4046 58.3841 62.9805 65.9477 62.9805Z" fill="white"/>
</g>
<defs>
<clipPath id="clip0_22_244">
<rect width="132" height="141" fill="white"/>
</clipPath>
</defs>
</svg>
