<svg width="129" height="136" viewBox="0 0 129 136" fill="none" xmlns="http://www.w3.org/2000/svg">
<g clip-path="url(#clip0_22_379)">
<path d="M64.5 136C100.122 136 129 105.556 129 68.0002C129 30.4448 100.122 0 64.5 0C28.8776 0 0 30.4448 0 68.0002C0 105.556 28.8776 136 64.5 136Z" fill="black"/>
<path fill-rule="evenodd" clip-rule="evenodd" d="M37.625 99.1213V85.8418C37.625 74.3895 46.0154 65.167 56.4375 65.167H72.5625C82.9873 65.167 91.375 74.3895 91.375 85.8418V99.1213H37.625Z" fill="white"/>
<path d="M64.4489 60.7464C71.8406 60.7464 77.8327 54.4038 77.8327 46.5798C77.8327 38.7557 71.8406 32.4131 64.4489 32.4131C57.0573 32.4131 51.0652 38.7557 51.0652 46.5798C51.0652 54.4038 57.0573 60.7464 64.4489 60.7464Z" fill="white"/>
</g>
<defs>
<clipPath id="clip0_22_379">
<rect width="129" height="136" fill="white"/>
</clipPath>
</defs>
</svg>
