<svg width="131" height="137" viewBox="0 0 131 137" fill="none" xmlns="http://www.w3.org/2000/svg">
<g clip-path="url(#clip0_22_65)">
<path d="M65.5 137C101.675 137 131 106.332 131 68.5002C131 30.6687 101.675 0 65.5 0C29.3253 0 0 30.6687 0 68.5002C0 106.332 29.3253 137 65.5 137Z" fill="black"/>
<path fill-rule="evenodd" clip-rule="evenodd" d="M38.2084 99.85V86.4728C38.2084 74.9363 46.7288 65.646 57.3125 65.646H73.6875C84.274 65.646 92.7917 74.9363 92.7917 86.4728V99.85H38.2084Z" fill="white"/>
<path d="M65.4482 61.1935C72.9544 61.1935 79.0394 54.8043 79.0394 46.9227C79.0394 39.0411 72.9544 32.6519 65.4482 32.6519C57.9419 32.6519 51.8569 39.0411 51.8569 46.9227C51.8569 54.8043 57.9419 61.1935 65.4482 61.1935Z" fill="white"/>
</g>
<defs>
<clipPath id="clip0_22_65">
<rect width="131" height="137" fill="white"/>
</clipPath>
</defs>
</svg>
