<svg width="131" height="141" viewBox="0 0 131 141" fill="none" xmlns="http://www.w3.org/2000/svg">
<g clip-path="url(#clip0_22_494)">
<path d="M65.5 141C101.675 141 131 109.436 131 70.5002C131 31.5641 101.675 0 65.5 0C29.3253 0 0 31.5641 0 70.5002C0 109.436 29.3253 141 65.5 141Z" fill="black"/>
<path fill-rule="evenodd" clip-rule="evenodd" d="M38.2084 102.765V88.9974C38.2084 77.1241 46.7288 67.5625 57.3125 67.5625H73.6875C84.274 67.5625 92.7917 77.1241 92.7917 88.9974V102.765H38.2084Z" fill="white"/>
<path d="M65.4482 62.9805C72.9544 62.9805 79.0394 56.4046 79.0394 48.293C79.0394 40.1813 72.9544 33.6055 65.4482 33.6055C57.9419 33.6055 51.8569 40.1813 51.8569 48.293C51.8569 56.4046 57.9419 62.9805 65.4482 62.9805Z" fill="white"/>
</g>
<defs>
<clipPath id="clip0_22_494">
<rect width="131" height="141" fill="white"/>
</clipPath>
</defs>
</svg>
