<svg width="131" height="139" viewBox="0 0 131 139" fill="none" xmlns="http://www.w3.org/2000/svg">
<g clip-path="url(#clip0_22_136)">
<path d="M65.5 139C101.675 139 131 107.884 131 69.5002C131 31.1164 101.675 0 65.5 0C29.3253 0 0 31.1164 0 69.5002C0 107.884 29.3253 139 65.5 139Z" fill="black"/>
<path fill-rule="evenodd" clip-rule="evenodd" d="M38.2084 101.308V87.7354C38.2084 76.0304 46.7288 66.6045 57.3125 66.6045H73.6875C84.274 66.6045 92.7917 76.0304 92.7917 87.7354V101.308H38.2084Z" fill="white"/>
<path d="M65.4482 62.0867C72.9544 62.0867 79.0394 55.6042 79.0394 47.6076C79.0394 39.611 72.9544 33.1284 65.4482 33.1284C57.9419 33.1284 51.8569 39.611 51.8569 47.6076C51.8569 55.6042 57.9419 62.0867 65.4482 62.0867Z" fill="white"/>
</g>
<defs>
<clipPath id="clip0_22_136">
<rect width="131" height="139" fill="white"/>
</clipPath>
</defs>
</svg>
