<svg width="131" height="136" viewBox="0 0 131 136" fill="none" xmlns="http://www.w3.org/2000/svg">
<g clip-path="url(#clip0_22_116)">
<path d="M65.5 136C101.675 136 131 105.556 131 68.0002C131 30.4448 101.675 0 65.5 0C29.3253 0 0 30.4448 0 68.0002C0 105.556 29.3253 136 65.5 136Z" fill="black"/>
<path fill-rule="evenodd" clip-rule="evenodd" d="M38.2084 99.1213V85.8418C38.2084 74.3895 46.7288 65.167 57.3125 65.167H73.6875C84.274 65.167 92.7917 74.3895 92.7917 85.8418V99.1213H38.2084Z" fill="white"/>
<path d="M65.4482 60.7469C72.9544 60.7469 79.0394 54.4043 79.0394 46.5802C79.0394 38.7562 72.9544 32.4136 65.4482 32.4136C57.9419 32.4136 51.8569 38.7562 51.8569 46.5802C51.8569 54.4043 57.9419 60.7469 65.4482 60.7469Z" fill="white"/>
</g>
<defs>
<clipPath id="clip0_22_116">
<rect width="131" height="136" fill="white"/>
</clipPath>
</defs>
</svg>
