<svg width="31" height="34" viewBox="0 0 31 34" fill="none" xmlns="http://www.w3.org/2000/svg">
<path d="M29.0787 31.875H1.87605V27.625H3.75209C4.00087 27.625 4.23946 27.5131 4.41538 27.3138C4.59129 27.1145 4.69012 26.8443 4.69012 26.5625C4.69012 26.2807 4.59129 26.0105 4.41538 25.8112C4.23946 25.6119 4.00087 25.5 3.75209 25.5H1.87605V22.3125C2.12483 22.3125 2.36342 22.2006 2.53933 22.0013C2.71524 21.802 2.81407 21.5318 2.81407 21.25C2.81407 20.9682 2.71524 20.698 2.53933 20.4987C2.36342 20.2994 2.12483 20.1875 1.87605 20.1875V17H3.75209C4.00087 17 4.23946 16.8881 4.41538 16.6888C4.59129 16.4895 4.69012 16.2193 4.69012 15.9375C4.69012 15.6557 4.59129 15.3855 4.41538 15.1862C4.23946 14.9869 4.00087 14.875 3.75209 14.875H1.87605V11.6875C2.12483 11.6875 2.36342 11.5756 2.53933 11.3763C2.71524 11.177 2.81407 10.9068 2.81407 10.625C2.81407 10.3432 2.71524 10.073 2.53933 9.8737C2.36342 9.67444 2.12483 9.5625 1.87605 9.5625V6.375H3.75209C4.00087 6.375 4.23946 6.26306 4.41538 6.0638C4.59129 5.86454 4.69012 5.59429 4.69012 5.3125C4.69012 5.03071 4.59129 4.76046 4.41538 4.5612C4.23946 4.36194 4.00087 4.25 3.75209 4.25H1.87605V1.0625C1.87605 0.780707 1.77722 0.510456 1.60131 0.311199C1.42539 0.111942 1.1868 0 0.938023 0C0.689244 0 0.450654 0.111942 0.274741 0.311199C0.0988272 0.510456 0 0.780707 0 1.0625L0 31.875C0 33.0469 0.841407 34 1.87605 34H29.0787C29.3275 34 29.5661 33.8881 29.742 33.6888C29.9179 33.4895 30.0168 33.2193 30.0168 32.9375C30.0168 32.6557 29.9179 32.3855 29.742 32.1862C29.5661 31.9869 29.3275 31.875 29.0787 31.875Z" fill="url(#paint0_linear_22_82)"/>
<defs>
<linearGradient id="paint0_linear_22_82" x1="15.0084" y1="0" x2="15.0084" y2="34" gradientUnits="userSpaceOnUse">
<stop stop-color="#FFE603"/>
<stop offset="1" stop-color="#FF9900"/>
</linearGradient>
</defs>
</svg>
