<svg width="32" height="32" viewBox="0 0 32 32" fill="none" xmlns="http://www.w3.org/2000/svg">
<path d="M15.9464 0C7.15249 0 0 7.1808 0 16C0 24.8256 7.15249 32 15.9464 32C24.7403 32 31.8928 24.8256 31.8928 16C31.8928 7.17867 24.7403 0 15.9464 0ZM15.9464 2.13333C16.9989 2.13333 18.0194 2.26133 19.0039 2.48533C19.3717 3.09333 19.7204 3.8016 19.9862 4.69333H11.9066C12.2872 3.7376 12.6721 3.0208 13.0718 2.43413C13.9988 2.24 14.9598 2.13547 15.9464 2.13547V2.13333ZM21.517 3.31093C22.3673 3.68857 23.1773 4.15174 23.9345 4.69333H22.325C22.0911 4.69333 21.804 4.05973 21.517 3.31093ZM10.2333 3.38133C9.99308 4.1024 9.78046 4.69333 9.56784 4.69333H7.95619C8.67114 4.18427 9.43294 3.74494 10.2312 3.38133H10.2333ZM5.59825 6.82667H8.92786C8.50475 8.96 8.29213 11.0933 8.29213 11.0933H3.02769C3.61945 9.52641 4.49049 8.08062 5.59825 6.82667ZM11.054 6.82667H20.6219C21.0471 8.96 21.2597 11.0933 21.4724 11.0933H10.4183C10.4183 11.0933 10.8414 8.96 11.054 6.82667ZM22.9649 6.82667H26.2945C27.4031 8.08045 28.2748 9.52625 28.8672 11.0933H23.6007C23.3881 11.0933 23.1776 8.96 22.9649 6.82667ZM2.40047 13.2267H8.07951V17.4933H2.20911C2.05502 16.0697 2.11955 14.6307 2.40047 13.2267ZM10.2057 13.2267H21.6829V17.4933H10.2078L10.2057 13.2267ZM23.809 13.2267H29.4902C29.7711 14.6307 29.8357 16.0697 29.6816 17.4933H23.809V13.2267ZM2.61521 19.6267H8.29213C8.50475 21.76 8.71736 23.8933 8.92998 23.8933H4.58193C3.68691 22.5948 3.02306 21.1515 2.61521 19.6267ZM10.2057 19.6267H21.4745C21.4745 21.76 21.0492 23.8933 20.8366 23.8933H11.0562C10.6309 23.8933 10.4183 21.76 10.2057 19.6267ZM23.6007 19.6267H29.2776C28.8697 21.1515 28.2038 22.5948 27.3087 23.8933H22.9628C23.1754 23.8933 23.5985 21.76 23.5985 19.6267H23.6007ZM6.40833 26.0267H9.56784C9.85487 27.4667 10.2227 28.1813 10.5735 28.7851C9.02871 28.1277 7.61858 27.1929 6.40833 26.0267ZM11.694 26.0267H19.9862C19.3589 27.6011 18.7275 28.8213 18.0152 29.696C17.3308 29.8044 16.6393 29.8615 15.9464 29.8667C15.1852 29.8667 14.4432 29.7899 13.716 29.6725C12.9804 28.8832 12.3383 27.6416 11.694 26.0267ZM22.1123 26.0267H25.4845C24.21 27.2512 22.713 28.2188 21.0748 28.8768C21.4639 28.2283 21.804 27.5755 22.1123 26.0267Z" fill="url(#paint0_linear_1_67)"/>
<defs>
<linearGradient id="paint0_linear_1_67" x1="0" y1="16.0021" x2="27.6404" y2="16.0021" gradientUnits="userSpaceOnUse">
<stop stop-color="#000092"/>
<stop offset="1" stop-color="#FF00F3"/>
</linearGradient>
</defs>
</svg>
