<svg width="54" height="57" viewBox="0 0 54 57" fill="none" xmlns="http://www.w3.org/2000/svg">
<path d="M42.9848 56.8377C41.0826 58.3543 28.8773 48.7409 26.5397 48.7197C24.2021 48.6988 11.8594 58.0911 9.97941 56.5405C8.09941 54.9898 12.5192 39.063 11.8149 36.5752C11.1105 34.0874 -0.70689 23.8877 0.0333601 21.4128C0.773773 18.938 15.7106 18.7081 17.6128 17.1915C19.515 15.6752 24.5543 -0.0209261 26.8921 2.09469e-05C29.2295 0.0211501 34.0411 15.8059 35.9211 17.3566C37.8011 18.907 52.7329 19.4061 53.4374 21.8939C54.1418 24.3817 42.1786 34.3672 41.4382 36.842C40.698 39.3169 44.887 55.3212 42.9848 56.8377Z" fill="url(#paint0_linear_1_74)"/>
<defs>
<linearGradient id="paint0_linear_1_74" x1="6.8438e-05" y1="28.5" x2="53.4673" y2="28.5" gradientUnits="userSpaceOnUse">
<stop stop-color="#FCD635"/>
<stop offset="1" stop-color="#F7A928"/>
</linearGradient>
</defs>
</svg>
