<svg width="32" height="34" viewBox="0 0 32 34" fill="none" xmlns="http://www.w3.org/2000/svg">
<path d="M30.8961 31.875H1.9933V27.625H3.9866C4.25093 27.625 4.50443 27.5131 4.69134 27.3138C4.87825 27.1145 4.98325 26.8443 4.98325 26.5625C4.98325 26.2807 4.87825 26.0105 4.69134 25.8112C4.50443 25.6119 4.25093 25.5 3.9866 25.5H1.9933V22.3125C2.25763 22.3125 2.51113 22.2006 2.69804 22.0013C2.88495 21.802 2.98995 21.5318 2.98995 21.25C2.98995 20.9682 2.88495 20.698 2.69804 20.4987C2.51113 20.2994 2.25763 20.1875 1.9933 20.1875V17H3.9866C4.25093 17 4.50443 16.8881 4.69134 16.6888C4.87825 16.4895 4.98325 16.2193 4.98325 15.9375C4.98325 15.6557 4.87825 15.3855 4.69134 15.1862C4.50443 14.9869 4.25093 14.875 3.9866 14.875H1.9933V11.6875C2.25763 11.6875 2.51113 11.5756 2.69804 11.3763C2.88495 11.177 2.98995 10.9068 2.98995 10.625C2.98995 10.3432 2.88495 10.073 2.69804 9.8737C2.51113 9.67444 2.25763 9.5625 1.9933 9.5625V6.375H3.9866C4.25093 6.375 4.50443 6.26306 4.69134 6.0638C4.87825 5.86454 4.98325 5.59429 4.98325 5.3125C4.98325 5.03071 4.87825 4.76046 4.69134 4.5612C4.50443 4.36194 4.25093 4.25 3.9866 4.25H1.9933V1.0625C1.9933 0.780707 1.8883 0.510456 1.70139 0.311199C1.51448 0.111942 1.26098 0 0.99665 0C0.732322 0 0.47882 0.111942 0.291912 0.311199C0.105004 0.510456 0 0.780707 0 1.0625L0 31.875C0 33.0469 0.893995 34 1.9933 34H30.8961C31.1605 34 31.414 33.8881 31.6009 33.6888C31.7878 33.4895 31.8928 33.2193 31.8928 32.9375C31.8928 32.6557 31.7878 32.3855 31.6009 32.1862C31.414 31.9869 31.1605 31.875 30.8961 31.875Z" fill="url(#paint0_linear_22_97)"/>
<defs>
<linearGradient id="paint0_linear_22_97" x1="15.9464" y1="0" x2="15.9464" y2="34" gradientUnits="userSpaceOnUse">
<stop stop-color="#FFE603"/>
<stop offset="1" stop-color="#FF9900"/>
</linearGradient>
</defs>
</svg>
