<svg width="31" height="30" viewBox="0 0 31 30" fill="none" xmlns="http://www.w3.org/2000/svg">
<path d="M29.0787 28.125H1.87605V24.375H3.75209C4.00087 24.375 4.23946 24.2762 4.41538 24.1004C4.59129 23.9246 4.69012 23.6861 4.69012 23.4375C4.69012 23.1889 4.59129 22.9504 4.41538 22.7746C4.23946 22.5988 4.00087 22.5 3.75209 22.5H1.87605V19.6875C2.12483 19.6875 2.36342 19.5887 2.53933 19.4129C2.71524 19.2371 2.81407 18.9986 2.81407 18.75C2.81407 18.5014 2.71524 18.2629 2.53933 18.0871C2.36342 17.9113 2.12483 17.8125 1.87605 17.8125V15H3.75209C4.00087 15 4.23946 14.9012 4.41538 14.7254C4.59129 14.5496 4.69012 14.3111 4.69012 14.0625C4.69012 13.8139 4.59129 13.5754 4.41538 13.3996C4.23946 13.2238 4.00087 13.125 3.75209 13.125H1.87605V10.3125C2.12483 10.3125 2.36342 10.2137 2.53933 10.0379C2.71524 9.8621 2.81407 9.62364 2.81407 9.375C2.81407 9.12636 2.71524 8.8879 2.53933 8.71209C2.36342 8.53627 2.12483 8.4375 1.87605 8.4375V5.625H3.75209C4.00087 5.625 4.23946 5.52623 4.41538 5.35041C4.59129 5.1746 4.69012 4.93614 4.69012 4.6875C4.69012 4.43886 4.59129 4.2004 4.41538 4.02459C4.23946 3.84877 4.00087 3.75 3.75209 3.75H1.87605V0.9375C1.87605 0.68886 1.77722 0.450403 1.60131 0.274587C1.42539 0.0987721 1.1868 0 0.938023 0C0.689244 0 0.450654 0.0987721 0.274741 0.274587C0.0988272 0.450403 0 0.68886 0 0.9375L0 28.125C0 29.1591 0.841407 30 1.87605 30H29.0787C29.3275 30 29.5661 29.9012 29.742 29.7254C29.9179 29.5496 30.0168 29.3111 30.0168 29.0625C30.0168 28.8139 29.9179 28.5754 29.742 28.3996C29.5661 28.2238 29.3275 28.125 29.0787 28.125Z" fill="url(#paint0_linear_22_375)"/>
<defs>
<linearGradient id="paint0_linear_22_375" x1="15.0084" y1="0" x2="15.0084" y2="30" gradientUnits="userSpaceOnUse">
<stop stop-color="#FFE603"/>
<stop offset="1" stop-color="#FF9900"/>
</linearGradient>
</defs>
</svg>
