<svg width="29" height="34" viewBox="0 0 29 34" fill="none" xmlns="http://www.w3.org/2000/svg">
<path d="M27.2613 31.875H1.75879V27.625H3.51759C3.75082 27.625 3.9745 27.5131 4.13942 27.3138C4.30433 27.1145 4.39698 26.8443 4.39698 26.5625C4.39698 26.2807 4.30433 26.0105 4.13942 25.8112C3.9745 25.6119 3.75082 25.5 3.51759 25.5H1.75879V22.3125C1.99202 22.3125 2.2157 22.2006 2.38062 22.0013C2.54554 21.802 2.63819 21.5318 2.63819 21.25C2.63819 20.9682 2.54554 20.698 2.38062 20.4987C2.2157 20.2994 1.99202 20.1875 1.75879 20.1875V17H3.51759C3.75082 17 3.9745 16.8881 4.13942 16.6888C4.30433 16.4895 4.39698 16.2193 4.39698 15.9375C4.39698 15.6557 4.30433 15.3855 4.13942 15.1862C3.9745 14.9869 3.75082 14.875 3.51759 14.875H1.75879V11.6875C1.99202 11.6875 2.2157 11.5756 2.38062 11.3763C2.54554 11.177 2.63819 10.9068 2.63819 10.625C2.63819 10.3432 2.54554 10.073 2.38062 9.8737C2.2157 9.67444 1.99202 9.5625 1.75879 9.5625V6.375H3.51759C3.75082 6.375 3.9745 6.26306 4.13942 6.0638C4.30433 5.86454 4.39698 5.59429 4.39698 5.3125C4.39698 5.03071 4.30433 4.76046 4.13942 4.5612C3.9745 4.36194 3.75082 4.25 3.51759 4.25H1.75879V1.0625C1.75879 0.780707 1.66614 0.510456 1.50122 0.311199C1.33631 0.111942 1.11263 0 0.879397 0C0.646166 0 0.422488 0.111942 0.257569 0.311199C0.0926505 0.510456 0 0.780707 0 1.0625L0 31.875C0 33.0469 0.788819 34 1.75879 34H27.2613C27.4945 34 27.7182 33.8881 27.8831 33.6888C28.0481 33.4895 28.1407 33.2193 28.1407 32.9375C28.1407 32.6557 28.0481 32.3855 27.8831 32.1862C27.7182 31.9869 27.4945 31.875 27.2613 31.875Z" fill="url(#paint0_linear_22_240)"/>
<defs>
<linearGradient id="paint0_linear_22_240" x1="14.0704" y1="0" x2="14.0704" y2="34" gradientUnits="userSpaceOnUse">
<stop stop-color="#FFE603"/>
<stop offset="1" stop-color="#FF9900"/>
</linearGradient>
</defs>
</svg>
