<svg width="23" height="16" viewBox="0 0 23 16" fill="none" xmlns="http://www.w3.org/2000/svg">
<path d="M21.4898 6.99463C21.7611 6.99463 22.0212 6.88935 22.213 6.70196C22.4048 6.51457 22.5126 6.26041 22.5126 5.9954V0.999233C22.5126 0.933783 22.5054 0.867833 22.4926 0.803383C22.486 0.773406 22.4747 0.745927 22.466 0.716949C22.4558 0.683475 22.4481 0.649501 22.4343 0.617026C22.4195 0.583052 22.3996 0.551577 22.3811 0.519601C22.3673 0.494621 22.3561 0.46864 22.3402 0.445658C22.2649 0.335843 22.1683 0.241477 22.0559 0.167871C22.0319 0.152383 22.0053 0.141392 21.9802 0.127902C21.9475 0.110415 21.9153 0.0909304 21.8805 0.0759419C21.8473 0.0629519 21.8125 0.0549579 21.7782 0.0449655C21.7486 0.0364721 21.7205 0.0254805 21.6898 0.0189855C21.6239 0.0066585 21.5569 0.000303006 21.4898 0H16.3762C16.105 0 15.8448 0.105276 15.653 0.292669C15.4612 0.480061 15.3535 0.73422 15.3535 0.999233C15.3535 1.26425 15.4612 1.5184 15.653 1.7058C15.8448 1.89319 16.105 1.99847 16.3762 1.99847H19.021L9.21711 11.5771L6.872 9.28587C6.68021 9.09854 6.42012 8.99331 6.14893 8.99331C5.87774 8.99331 5.61765 9.09854 5.42586 9.28587L0.312227 14.282C0.214546 14.3742 0.136632 14.4845 0.083032 14.6064C0.0294319 14.7283 0.00121865 14.8594 3.86152e-05 14.9921C-0.00114142 15.1248 0.0247351 15.2563 0.0761587 15.3791C0.127582 15.5019 0.203523 15.6135 0.29955 15.7073C0.395576 15.8012 0.509766 15.8753 0.635455 15.9256C0.761145 15.9758 0.895817 16.0011 1.03161 16C1.16741 15.9988 1.30161 15.9712 1.42639 15.9189C1.55117 15.8665 1.66402 15.7904 1.75836 15.6949L6.14893 11.4052L8.49404 13.6965C8.68583 13.8838 8.94592 13.989 9.21711 13.989C9.4883 13.989 9.74839 13.8838 9.94018 13.6965L20.4671 3.41138V5.9954C20.4671 6.26041 20.5749 6.51457 20.7667 6.70196C20.9585 6.88935 21.2186 6.99463 21.4898 6.99463Z" fill="url(#paint0_linear_22_279)"/>
<defs>
<linearGradient id="paint0_linear_22_279" x1="11.2563" y1="0" x2="11.2563" y2="16" gradientUnits="userSpaceOnUse">
<stop stop-color="#FFE603"/>
<stop offset="1" stop-color="#FF9900"/>
</linearGradient>
</defs>
</svg>
