<svg width="29" height="30" viewBox="0 0 29 30" fill="none" xmlns="http://www.w3.org/2000/svg">
<path d="M14.2613 0C6.50194 0 0.190918 6.732 0.190918 15C0.190918 23.274 6.50194 30 14.2613 30C22.0206 30 28.3316 23.274 28.3316 15C28.3316 6.73 22.0206 0 14.2613 0ZM14.2613 2C15.1899 2 16.0904 2.12 16.959 2.33C17.2836 2.9 17.5913 3.564 17.8258 4.4H10.6968C11.0326 3.504 11.3722 2.832 11.7249 2.282C12.5428 2.1 13.3908 2.002 14.2613 2.002V2ZM19.1765 3.104C19.9268 3.45803 20.6415 3.89225 21.3096 4.4H19.8894C19.683 4.4 19.4298 3.806 19.1765 3.104ZM9.22033 3.17C9.00834 3.846 8.82073 4.4 8.63313 4.4H7.21109C7.84192 3.92276 8.5141 3.51089 9.21846 3.17H9.22033ZM5.13055 6.4H8.06844C7.69511 8.4 7.5075 10.4 7.5075 10.4H2.86241C3.38455 8.93101 4.15312 7.57559 5.13055 6.4ZM9.94449 6.4H18.3867C18.7619 8.4 18.9495 10.4 19.1371 10.4H9.38355C9.38355 10.4 9.75688 8.4 9.94449 6.4ZM20.4541 6.4H23.392C24.3701 7.57543 25.1393 8.93086 25.662 10.4H21.015C20.8274 10.4 20.6417 8.4 20.4541 6.4ZM2.30898 12.4H7.3199V16.4H2.14013C2.00417 15.0653 2.06111 13.7163 2.30898 12.4ZM9.19594 12.4H19.3228V16.4H9.19782L9.19594 12.4ZM21.1989 12.4H26.2117C26.4596 13.7163 26.5165 15.0653 26.3805 16.4H21.1989V12.4ZM2.49846 18.4H7.5075C7.69511 20.4 7.88271 22.4 8.07031 22.4H4.2338C3.44408 21.1826 2.85833 19.8296 2.49846 18.4ZM9.19594 18.4H19.139C19.139 20.4 18.7638 22.4 18.5762 22.4H9.94636C9.57115 22.4 9.38355 20.4 9.19594 18.4ZM21.015 18.4H26.0241C25.6642 19.8296 25.0766 21.1826 24.2869 22.4H20.4522C20.6398 22.4 21.0132 20.4 21.0132 18.4H21.015ZM5.84532 24.4H8.63313C8.8864 25.75 9.21095 26.42 9.5205 26.986C8.15742 26.3697 6.91319 25.4933 5.84532 24.4ZM10.5092 24.4H17.8258C17.2723 25.876 16.7151 27.02 16.0867 27.84C15.4828 27.9417 14.8726 27.9952 14.2613 28C13.5896 28 12.9349 27.928 12.2933 27.818C11.6442 27.078 11.0776 25.914 10.5092 24.4ZM19.7018 24.4H22.6772C21.5527 25.548 20.2318 26.4551 18.7863 27.072C19.1296 26.464 19.4298 25.852 19.7018 24.4Z" fill="url(#paint0_linear_2_89)"/>
<defs>
<linearGradient id="paint0_linear_2_89" x1="0.190918" y1="15.002" x2="24.5795" y2="15.002" gradientUnits="userSpaceOnUse">
<stop stop-color="#000092"/>
<stop offset="1" stop-color="#FF00F3"/>
</linearGradient>
</defs>
</svg>
