<svg width="56" height="60" viewBox="0 0 56 60" fill="none" xmlns="http://www.w3.org/2000/svg">
<path d="M44.4676 59.8292C42.532 61.4256 30.1126 51.3062 27.734 51.2839C25.3554 51.2619 12.7961 61.1485 10.8831 59.5163C8.97015 57.884 13.4675 41.1189 12.7508 38.5002C12.0341 35.8815 0.00934649 25.1449 0.762583 22.5398C1.51599 19.9347 16.7149 19.6927 18.6505 18.0964C20.586 16.5002 25.7137 -0.0220275 28.0925 2.20494e-05C30.4709 0.0222633 35.367 16.6378 37.2799 18.2701C39.1929 19.9021 54.3867 20.4275 55.1036 23.0462C55.8203 25.6649 43.6472 36.176 42.8938 38.7811C42.1406 41.3862 46.4031 58.2328 44.4676 59.8292Z" fill="url(#paint0_linear_2_100)"/>
<defs>
<linearGradient id="paint0_linear_2_100" x1="0.728707" y1="30" x2="55.134" y2="30" gradientUnits="userSpaceOnUse">
<stop stop-color="#FCD635"/>
<stop offset="1" stop-color="#F7A928"/>
</linearGradient>
</defs>
</svg>
