<svg width="20" height="16" viewBox="0 0 20 16" fill="none" xmlns="http://www.w3.org/2000/svg">
<path d="M18.8036 6.99463C19.0409 6.99463 19.2686 6.88935 19.4364 6.70196C19.6042 6.51457 19.6985 6.26041 19.6985 5.9954V0.999233C19.6985 0.933783 19.6922 0.867833 19.681 0.803383C19.6752 0.773406 19.6654 0.745927 19.6578 0.716949C19.6488 0.683475 19.6421 0.649501 19.63 0.617026C19.6171 0.583052 19.5996 0.551577 19.5835 0.519601C19.5714 0.494621 19.5616 0.46864 19.5477 0.445658C19.4818 0.335843 19.3973 0.241477 19.2989 0.167871C19.2779 0.152383 19.2546 0.141392 19.2327 0.127902C19.2041 0.110415 19.1759 0.0909304 19.1455 0.0759419C19.1164 0.0629519 19.0859 0.0549579 19.056 0.0449655C19.03 0.0364721 19.0054 0.0254805 18.9786 0.0189855C18.9209 0.0066585 18.8623 0.000303006 18.8036 0H14.3292C14.0918 0 13.8642 0.105276 13.6964 0.292669C13.5286 0.480061 13.4343 0.73422 13.4343 0.999233C13.4343 1.26425 13.5286 1.5184 13.6964 1.7058C13.8642 1.89319 14.0918 1.99847 14.3292 1.99847H16.6434L8.06497 11.5771L6.013 9.28587C5.84518 9.09854 5.6176 8.99331 5.38031 8.99331C5.14302 8.99331 4.91544 9.09854 4.74763 9.28587L0.273198 14.282C0.187728 14.3742 0.119553 14.4845 0.072653 14.6064C0.0257529 14.7283 0.00106632 14.8594 3.37883e-05 14.9921C-0.000998746 15.1248 0.0216432 15.2563 0.0666389 15.3791C0.111635 15.5019 0.178083 15.6135 0.262106 15.7073C0.346129 15.8012 0.446045 15.8753 0.556023 15.9256C0.666002 15.9758 0.78384 16.0011 0.902662 16C1.02148 15.9988 1.13891 15.9712 1.24809 15.9189C1.35727 15.8665 1.45602 15.7904 1.53857 15.6949L5.38031 11.4052L7.43229 13.6965C7.6001 13.8838 7.82768 13.989 8.06497 13.989C8.30226 13.989 8.52984 13.8838 8.69766 13.6965L17.9087 3.41138V5.9954C17.9087 6.26041 18.003 6.51457 18.1708 6.70196C18.3386 6.88935 18.5663 6.99463 18.8036 6.99463Z" fill="url(#paint0_linear_22_61)"/>
<defs>
<linearGradient id="paint0_linear_22_61" x1="9.84925" y1="0" x2="9.84925" y2="16" gradientUnits="userSpaceOnUse">
<stop stop-color="#FFE603"/>
<stop offset="1" stop-color="#FF9900"/>
</linearGradient>
</defs>
</svg>
