<svg width="29" height="30" viewBox="0 0 29 30" fill="none" xmlns="http://www.w3.org/2000/svg">
<path d="M27.2613 28.125H1.75879V24.375H3.51759C3.75082 24.375 3.9745 24.2762 4.13942 24.1004C4.30433 23.9246 4.39698 23.6861 4.39698 23.4375C4.39698 23.1889 4.30433 22.9504 4.13942 22.7746C3.9745 22.5988 3.75082 22.5 3.51759 22.5H1.75879V19.6875C1.99202 19.6875 2.2157 19.5887 2.38062 19.4129C2.54554 19.2371 2.63819 18.9986 2.63819 18.75C2.63819 18.5014 2.54554 18.2629 2.38062 18.0871C2.2157 17.9113 1.99202 17.8125 1.75879 17.8125V15H3.51759C3.75082 15 3.9745 14.9012 4.13942 14.7254C4.30433 14.5496 4.39698 14.3111 4.39698 14.0625C4.39698 13.8139 4.30433 13.5754 4.13942 13.3996C3.9745 13.2238 3.75082 13.125 3.51759 13.125H1.75879V10.3125C1.99202 10.3125 2.2157 10.2137 2.38062 10.0379C2.54554 9.8621 2.63819 9.62364 2.63819 9.375C2.63819 9.12636 2.54554 8.8879 2.38062 8.71209C2.2157 8.53627 1.99202 8.4375 1.75879 8.4375V5.625H3.51759C3.75082 5.625 3.9745 5.52623 4.13942 5.35041C4.30433 5.1746 4.39698 4.93614 4.39698 4.6875C4.39698 4.43886 4.30433 4.2004 4.13942 4.02459C3.9745 3.84877 3.75082 3.75 3.51759 3.75H1.75879V0.9375C1.75879 0.68886 1.66614 0.450403 1.50122 0.274587C1.33631 0.0987721 1.11263 0 0.879397 0C0.646166 0 0.422488 0.0987721 0.257569 0.274587C0.0926505 0.450403 0 0.68886 0 0.9375L0 28.125C0 29.1591 0.788819 30 1.75879 30H27.2613C27.4945 30 27.7182 29.9012 27.8831 29.7254C28.0481 29.5496 28.1407 29.3111 28.1407 29.0625C28.1407 28.8139 28.0481 28.5754 27.8831 28.3996C27.7182 28.2238 27.4945 28.125 27.2613 28.125Z" fill="url(#paint0_linear_22_278)"/>
<defs>
<linearGradient id="paint0_linear_22_278" x1="14.0704" y1="0" x2="14.0704" y2="30" gradientUnits="userSpaceOnUse">
<stop stop-color="#FFE603"/>
<stop offset="1" stop-color="#FF9900"/>
</linearGradient>
</defs>
</svg>
