<svg width="36" height="34" viewBox="0 0 36 34" fill="none" xmlns="http://www.w3.org/2000/svg">
<path d="M30.5573 19.5838V32.304C30.5573 32.7633 30.4173 33.1608 30.1373 33.4965C29.8572 33.8322 29.5256 34 29.1423 34H20.6524V23.8238H14.9925V34H6.50255C6.11933 34 5.78769 33.8322 5.50764 33.4965C5.22759 33.1608 5.08757 32.7633 5.08757 32.304V19.5838C5.08757 19.5661 5.09125 19.5396 5.09862 19.5043C5.10599 19.469 5.10967 19.4425 5.10967 19.4248L17.8224 6.8636L30.5352 19.4248C30.55 19.4601 30.5573 19.5131 30.5573 19.5838ZM35.4877 17.7553L34.1169 19.7163C33.999 19.8753 33.8442 19.9725 33.6526 20.0078H33.5863C33.3947 20.0078 33.2399 19.946 33.122 19.8223L17.8224 4.53157L2.5229 19.8223C2.34603 19.9636 2.16916 20.0255 1.99228 20.0078C1.80067 19.9725 1.6459 19.8753 1.52799 19.7163L0.157221 17.7553C0.0393052 17.5786 -0.0122829 17.371 0.00245657 17.1325C0.017196 16.894 0.098263 16.7041 0.245657 16.5627L16.1421 0.68901C16.6138 0.22967 17.1739 0 17.8224 0C18.471 0 19.0311 0.22967 19.5027 0.68901L24.8974 6.09509V0.927514C24.8974 0.680177 24.9637 0.477007 25.0964 0.318005C25.229 0.159002 25.3985 0.0795012 25.6049 0.0795012H29.8498C30.0562 0.0795012 30.2257 0.159002 30.3583 0.318005C30.491 0.477007 30.5573 0.680177 30.5573 0.927514V11.7397L35.3992 16.5627C35.5466 16.7041 35.6277 16.894 35.6424 17.1325C35.6572 17.371 35.6056 17.5786 35.4877 17.7553Z" fill="url(#paint0_linear_22_77)"/>
<defs>
<linearGradient id="paint0_linear_22_77" x1="17.8224" y1="0" x2="17.8224" y2="34" gradientUnits="userSpaceOnUse">
<stop stop-color="#00FF38"/>
<stop offset="1" stop-color="#00F0FF"/>
</linearGradient>
</defs>
</svg>
