<svg width="55" height="60" viewBox="0 0 55 60" fill="none" xmlns="http://www.w3.org/2000/svg">
<path d="M43.9734 59.8292C42.0379 61.4256 29.6184 51.3062 27.2398 51.2839C24.8612 51.2619 12.302 61.1485 10.389 59.5163C8.47601 57.884 12.9733 41.1189 12.2566 38.5002C11.5399 35.8815 -0.484794 25.1449 0.268442 22.5398C1.02185 19.9347 16.2208 19.6927 18.1563 18.0964C20.0919 16.5002 25.2196 -0.0220275 27.5984 2.20494e-05C29.9768 0.0222633 34.8728 16.6378 36.7858 18.2701C38.6988 19.9021 53.8926 20.4275 54.6094 23.0462C55.3261 25.6649 43.1531 36.176 42.3997 38.7811C41.6465 41.3862 45.909 58.2328 43.9734 59.8292Z" fill="url(#paint0_linear_2_103)"/>
<defs>
<linearGradient id="paint0_linear_2_103" x1="0.234567" y1="30" x2="54.6398" y2="30" gradientUnits="userSpaceOnUse">
<stop stop-color="#FCD635"/>
<stop offset="1" stop-color="#F7A928"/>
</linearGradient>
</defs>
</svg>
