<svg width="35" height="29" viewBox="0 0 35 29" fill="none" xmlns="http://www.w3.org/2000/svg">
<path d="M29.7532 16.7038V27.5534C29.7532 27.9452 29.6168 28.2842 29.3442 28.5705C29.0715 28.8568 28.7486 29 28.3754 29H20.1089V20.3203H14.5979V29H6.33143C5.95829 29 5.63538 28.8568 5.3627 28.5705C5.09002 28.2842 4.95368 27.9452 4.95368 27.5534V16.7038C4.95368 16.6888 4.95727 16.6661 4.96445 16.636C4.97162 16.6059 4.97521 16.5833 4.97521 16.5682L17.3534 5.85425L29.7317 16.5682C29.746 16.5983 29.7532 16.6435 29.7532 16.7038ZM34.5538 15.1442L33.2191 16.8168C33.1043 16.9525 32.9536 17.0353 32.767 17.0655H32.7024C32.5159 17.0655 32.3652 17.0127 32.2504 16.9072L17.3534 3.86516L2.45651 16.9072C2.28429 17.0278 2.11207 17.0805 1.93985 17.0655C1.75328 17.0353 1.60259 16.9525 1.48778 16.8168L0.153083 15.1442C0.0382708 14.9935 -0.0119596 14.8164 0.00239193 14.613C0.0167435 14.4096 0.0956771 14.2476 0.239193 14.127L15.7174 0.587685C16.1766 0.195895 16.722 0 17.3534 0C17.9849 0 18.5303 0.195895 18.9895 0.587685L24.2422 5.19875V0.791115C24.2422 0.580151 24.3068 0.406859 24.4359 0.271239C24.5651 0.13562 24.7301 0.0678098 24.9311 0.0678098H29.0643C29.2652 0.0678098 29.4303 0.13562 29.5594 0.271239C29.6886 0.406859 29.7532 0.580151 29.7532 0.791115V10.0133L34.4677 14.127C34.6112 14.2476 34.6901 14.4096 34.7045 14.613C34.7188 14.8164 34.6686 14.9935 34.5538 15.1442Z" fill="url(#paint0_linear_22_273)"/>
<defs>
<linearGradient id="paint0_linear_22_273" x1="17.3534" y1="0" x2="17.3534" y2="29" gradientUnits="userSpaceOnUse">
<stop stop-color="#00FF38"/>
<stop offset="1" stop-color="#00F0FF"/>
</linearGradient>
</defs>
</svg>
