<svg width="21" height="19" viewBox="0 0 21 19" fill="none" xmlns="http://www.w3.org/2000/svg">
<path d="M19.699 8.30612C19.9477 8.30612 20.1861 8.18111 20.3619 7.95858C20.5377 7.73605 20.6365 7.43423 20.6365 7.11953V1.18659C20.6365 1.10887 20.63 1.03055 20.6182 0.954017C20.6121 0.918419 20.6018 0.885788 20.5939 0.851377C20.5845 0.811626 20.5775 0.771283 20.5648 0.732719C20.5512 0.692375 20.5329 0.654997 20.516 0.617027C20.5034 0.587362 20.4931 0.55651 20.4785 0.529219C20.4095 0.398813 20.321 0.286754 20.2179 0.199347C20.1959 0.180955 20.1715 0.167903 20.1485 0.151884C20.1185 0.131118 20.089 0.10798 20.0571 0.090181C20.0267 0.0747553 19.9948 0.0652625 19.9634 0.0533966C19.9362 0.0433106 19.9104 0.0302581 19.8823 0.0225452C19.8219 0.00790697 19.7605 0.00035982 19.699 0H15.0115C14.7629 0 14.5244 0.125015 14.3486 0.347544C14.1728 0.570073 14.074 0.871886 14.074 1.18659C14.074 1.50129 14.1728 1.8031 14.3486 2.02563C14.5244 2.24816 14.7629 2.37318 15.0115 2.37318H17.4359L8.44902 13.7478L6.29933 11.027C6.12352 10.8045 5.88511 10.6796 5.63652 10.6796C5.38793 10.6796 5.14951 10.8045 4.97371 11.027L0.286208 16.9599C0.196667 17.0694 0.125246 17.2003 0.0761127 17.3451C0.0269792 17.4898 0.0011171 17.6455 3.53972e-05 17.8031C-0.00104631 17.9607 0.0226738 18.1169 0.0698122 18.2627C0.11695 18.4086 0.186563 18.541 0.274587 18.6525C0.362612 18.7639 0.467285 18.852 0.582501 18.9116C0.697716 18.9713 0.821166 19.0013 0.945646 19C1.07013 18.9986 1.19315 18.9659 1.30752 18.9037C1.4219 18.8415 1.52535 18.7511 1.61183 18.6377L5.63652 13.5437L7.78621 16.2646C7.96201 16.487 8.20043 16.612 8.44902 16.612C8.69761 16.612 8.93602 16.487 9.11183 16.2646L18.7615 4.05101V7.11953C18.7615 7.43423 18.8603 7.73605 19.0361 7.95858C19.2119 8.18111 19.4504 8.30612 19.699 8.30612Z" fill="url(#paint0_linear_22_346)"/>
<defs>
<linearGradient id="paint0_linear_22_346" x1="10.3183" y1="0" x2="10.3183" y2="19" gradientUnits="userSpaceOnUse">
<stop stop-color="#FFE603"/>
<stop offset="1" stop-color="#FF9900"/>
</linearGradient>
</defs>
</svg>
