<svg width="34" height="31" viewBox="0 0 34 31" fill="none" xmlns="http://www.w3.org/2000/svg">
<path d="M28.949 17.8558V29.4536C28.949 29.8724 28.8164 30.2349 28.5511 30.5409C28.2858 30.847 27.9716 31 27.6085 31H19.5655V21.7217H14.2034V31H6.16031C5.79726 31 5.48307 30.847 5.21776 30.5409C4.95245 30.2349 4.8198 29.8724 4.8198 29.4536V17.8558C4.8198 17.8397 4.82329 17.8155 4.83027 17.7833C4.83725 17.7511 4.84074 17.7269 4.84074 17.7108L16.8844 6.25799L28.9281 17.7108C28.9421 17.743 28.949 17.7914 28.949 17.8558ZM33.6199 16.1886L32.3213 17.9766C32.2096 18.1216 32.0629 18.2102 31.8814 18.2424H31.8186C31.6371 18.2424 31.4904 18.186 31.3787 18.0733L16.8844 4.13172L2.39012 18.0733C2.22255 18.2021 2.05499 18.2585 1.88742 18.2424C1.7059 18.2102 1.55928 18.1216 1.44757 17.9766L0.148946 16.1886C0.0372365 16.0275 -0.0116364 15.8383 0.00232728 15.6208C0.016291 15.4034 0.0930912 15.2302 0.232728 15.1013L15.2926 0.628215C15.7394 0.209405 16.27 0 16.8844 0C17.4988 0 18.0294 0.209405 18.4763 0.628215L23.587 5.55729V0.845674C23.587 0.620161 23.6498 0.434918 23.7755 0.289945C23.9012 0.144973 24.0618 0.0724864 24.2572 0.0724864H28.2788C28.4743 0.0724864 28.6349 0.144973 28.7605 0.289945C28.8862 0.434918 28.949 0.620161 28.949 0.845674V10.7038L33.5361 15.1013C33.6758 15.2302 33.7526 15.4034 33.7665 15.6208C33.7805 15.8383 33.7316 16.0275 33.6199 16.1886Z" fill="url(#paint0_linear_22_161)"/>
<defs>
<linearGradient id="paint0_linear_22_161" x1="16.8844" y1="0" x2="16.8844" y2="31" gradientUnits="userSpaceOnUse">
<stop stop-color="#00FF38"/>
<stop offset="1" stop-color="#00F0FF"/>
</linearGradient>
</defs>
</svg>
