<svg width="857" height="64" viewBox="0 0 857 64" fill="none" xmlns="http://www.w3.org/2000/svg">
<path d="M2 23.737C9.83158 24.5276 20.9541 28.8017 28.0073 32.3619C31.4116 34.0803 32.9582 36.8891 36.4251 37.6891C41.4335 38.8448 47.1115 39.7185 52.2556 39.7185C56.2659 39.7185 59.5008 40.4182 63.249 40.7966C68.8752 41.3646 75.2084 39.6631 80.65 41.4943C85.2027 43.0263 88.6352 44.804 92.5229 47.0117C98.7184 50.5299 107.59 47.4509 113.882 50.6266C116.752 52.0753 119.628 52.6118 122.739 53.417C126.917 54.4985 129.793 57.6698 133.795 58.871C143.514 61.788 155.315 61.016 165.331 61.6614C179.324 62.5631 192.193 61.5442 206.038 60.0125C220.099 58.4568 234.145 55.5518 247.938 52.2754C258.058 49.8717 265.766 46.2363 275.202 42.5724C283.369 39.4014 290.286 35.6393 298.257 31.9814C303.599 29.5301 307.511 27.459 311.198 22.7223C312.222 21.4059 317.613 18.355 319.301 18.0927C330.297 16.3849 343.173 22.2657 353.664 18.0293C360.075 15.4403 367.501 15.4388 372.886 10.5459C375.173 8.46847 379.985 6.66693 382.812 5.47238C395.087 0.284731 404.81 5.47238 418.054 5.47238C430.787 5.47238 443.318 6.61391 455.997 6.61391C465.607 6.61391 474.988 5.47238 484.579 5.47238C490.987 5.47238 497.395 5.47238 503.802 5.47238C507.722 5.47238 518.917 6.26309 521.894 4.07716C527.455 -0.00538332 537.529 3.1893 544.132 3.1893C548.164 3.1893 552.294 2.86984 556.068 4.58451C559.02 5.92533 566.358 5.14364 568.255 6.86759C573.218 11.3769 580.23 14.2174 586.975 17.3951C591.288 19.427 597.166 19.8366 601.864 20.249C608.743 20.8529 609.507 23.8055 614.427 27.669C618.257 30.6762 624.399 31.374 628.687 34.645C632.62 37.645 636.788 38.1475 641.126 39.9722C649.062 43.3104 658.305 46.3723 666.63 46.5678C675.487 46.7757 683.514 53.403 692.952 52.212C696.75 51.7327 701.651 51.7031 705.264 50.5631C709.352 49.2736 713.766 50.7937 717.828 49.3582C721.599 48.0259 726.684 46.6474 730.706 46.5678C736.592 46.4513 741.235 43.2768 746.914 41.7479C749.733 40.989 761.712 38.3844 764.126 41.4308C765.22 42.8115 769.199 42.6286 770.911 43.3968C773.812 44.6985 775.418 46.9007 778.575 47.963C787.623 51.0077 796.044 46.5678 804.833 46.5678C806.851 46.5678 807.142 50.5766 808.854 51.0705C811.544 51.8466 814.997 52.8492 817.837 52.212C819.5 51.8389 824.482 49.5628 825.752 48.2801C827.804 46.209 830.079 44.4084 830.904 41.4943C831.932 37.859 841.684 36.2939 844.661 36.2939C847.214 36.2939 857.13 35.4368 854.586 32.8693" stroke="black" stroke-width="3" stroke-linecap="round"/>
</svg>
