<svg width="21" height="18" viewBox="0 0 21 18" fill="none" xmlns="http://www.w3.org/2000/svg">
<path d="M19.699 7.86896C19.9477 7.86896 20.1861 7.75052 20.3619 7.5397C20.5377 7.32889 20.6365 7.04296 20.6365 6.74482V1.12414C20.6365 1.05051 20.63 0.976312 20.6182 0.903806C20.6121 0.870082 20.6018 0.839168 20.5939 0.806568C20.5845 0.768909 20.5775 0.730689 20.5648 0.694155C20.5512 0.655934 20.5329 0.620524 20.516 0.584552C20.5034 0.556448 20.4931 0.52722 20.4785 0.501365C20.4095 0.377823 20.321 0.271662 20.2179 0.188855C20.1959 0.171431 20.1715 0.159066 20.1485 0.14389C20.1185 0.124217 20.089 0.102297 20.0571 0.0854346C20.0267 0.0708208 19.9948 0.0618276 19.9634 0.0505862C19.9362 0.0410311 19.9104 0.0286655 19.8823 0.0213587C19.8219 0.00749082 19.7605 0.000340882 19.699 0H15.0115C14.7629 0 14.5244 0.118436 14.3486 0.329252C14.1728 0.540069 14.074 0.825997 14.074 1.12414C14.074 1.42228 14.1728 1.7082 14.3486 1.91902C14.5244 2.12984 14.7629 2.24827 15.0115 2.24827H17.4359L8.44902 13.0242L6.29933 10.4466C6.12352 10.2359 5.88511 10.1175 5.63652 10.1175C5.38793 10.1175 5.14951 10.2359 4.97371 10.4466L0.286208 16.0673C0.196667 16.171 0.125246 16.295 0.0761127 16.4322C0.0269792 16.5693 0.0011171 16.7168 3.53972e-05 16.8661C-0.00104631 17.0154 0.0226738 17.1634 0.0698122 17.3015C0.11695 17.4397 0.186563 17.5652 0.274587 17.6707C0.362612 17.7763 0.467285 17.8598 0.582501 17.9163C0.697716 17.9728 0.821166 18.0013 0.945646 18C1.07013 17.9987 1.19315 17.9676 1.30752 17.9087C1.4219 17.8498 1.52535 17.7642 1.61183 17.6568L5.63652 12.8309L7.78621 15.4085C7.96201 15.6193 8.20043 15.7377 8.44902 15.7377C8.69761 15.7377 8.93602 15.6193 9.11183 15.4085L18.7615 3.8378V6.74482C18.7615 7.04296 18.8603 7.32889 19.0361 7.5397C19.2119 7.75052 19.4504 7.86896 19.699 7.86896Z" fill="url(#paint0_linear_22_207)"/>
<defs>
<linearGradient id="paint0_linear_22_207" x1="10.3183" y1="0" x2="10.3183" y2="18" gradientUnits="userSpaceOnUse">
<stop stop-color="#FFE603"/>
<stop offset="1" stop-color="#FF9900"/>
</linearGradient>
</defs>
</svg>
