<svg width="28" height="37" viewBox="0 0 28 37" fill="none" xmlns="http://www.w3.org/2000/svg">
<path d="M26.3526 34.6875H1.70017V30.0625H3.40034C3.62579 30.0625 3.84201 29.9407 4.00143 29.7238C4.16086 29.507 4.25042 29.2129 4.25042 28.9062C4.25042 28.5996 4.16086 28.3055 4.00143 28.0887C3.84201 27.8718 3.62579 27.75 3.40034 27.75H1.70017V24.2812C1.92562 24.2812 2.14185 24.1594 2.30127 23.9426C2.46069 23.7258 2.55025 23.4317 2.55025 23.125C2.55025 22.8183 2.46069 22.5242 2.30127 22.3074C2.14185 22.0906 1.92562 21.9688 1.70017 21.9688V18.5H3.40034C3.62579 18.5 3.84201 18.3782 4.00143 18.1613C4.16086 17.9445 4.25042 17.6504 4.25042 17.3438C4.25042 17.0371 4.16086 16.743 4.00143 16.5262C3.84201 16.3093 3.62579 16.1875 3.40034 16.1875H1.70017V12.7188C1.92562 12.7188 2.14185 12.5969 2.30127 12.3801C2.46069 12.1633 2.55025 11.8692 2.55025 11.5625C2.55025 11.2558 2.46069 10.9617 2.30127 10.7449C2.14185 10.5281 1.92562 10.4062 1.70017 10.4062V6.9375H3.40034C3.62579 6.9375 3.84201 6.81568 4.00143 6.59884C4.16086 6.382 4.25042 6.08791 4.25042 5.78125C4.25042 5.47459 4.16086 5.1805 4.00143 4.96366C3.84201 4.74682 3.62579 4.625 3.40034 4.625H1.70017V1.15625C1.70017 0.849593 1.61061 0.555497 1.45118 0.338658C1.29176 0.121819 1.07554 0 0.850084 0C0.624628 0 0.408405 0.121819 0.248984 0.338658C0.0895622 0.555497 0 0.849593 0 1.15625L0 34.6875C0 35.9628 0.762525 37 1.70017 37H26.3526C26.5781 37 26.7943 36.8782 26.9537 36.6613C27.1131 36.4445 27.2027 36.1504 27.2027 35.8438C27.2027 35.5371 27.1131 35.243 26.9537 35.0262C26.7943 34.8093 26.5781 34.6875 26.3526 34.6875Z" fill="url(#paint0_linear_22_315)"/>
<defs>
<linearGradient id="paint0_linear_22_315" x1="13.6013" y1="0" x2="13.6013" y2="37" gradientUnits="userSpaceOnUse">
<stop stop-color="#FFE603"/>
<stop offset="1" stop-color="#FF9900"/>
</linearGradient>
</defs>
</svg>
