<svg width="32" height="33" viewBox="0 0 32 33" fill="none" xmlns="http://www.w3.org/2000/svg">
<path d="M30.8961 30.9375H1.9933V26.8125H3.9866C4.25093 26.8125 4.50443 26.7039 4.69134 26.5105C4.87825 26.3171 4.98325 26.0548 4.98325 25.7812C4.98325 25.5077 4.87825 25.2454 4.69134 25.052C4.50443 24.8586 4.25093 24.75 3.9866 24.75H1.9933V21.6562C2.25763 21.6562 2.51113 21.5476 2.69804 21.3542C2.88495 21.1608 2.98995 20.8985 2.98995 20.625C2.98995 20.3515 2.88495 20.0892 2.69804 19.8958C2.51113 19.7024 2.25763 19.5938 1.9933 19.5938V16.5H3.9866C4.25093 16.5 4.50443 16.3914 4.69134 16.198C4.87825 16.0046 4.98325 15.7423 4.98325 15.4688C4.98325 15.1952 4.87825 14.9329 4.69134 14.7395C4.50443 14.5461 4.25093 14.4375 3.9866 14.4375H1.9933V11.3438C2.25763 11.3438 2.51113 11.2351 2.69804 11.0417C2.88495 10.8483 2.98995 10.586 2.98995 10.3125C2.98995 10.039 2.88495 9.77669 2.69804 9.5833C2.51113 9.3899 2.25763 9.28125 1.9933 9.28125V6.1875H3.9866C4.25093 6.1875 4.50443 6.07885 4.69134 5.88545C4.87825 5.69206 4.98325 5.42975 4.98325 5.15625C4.98325 4.88275 4.87825 4.62044 4.69134 4.42705C4.50443 4.23365 4.25093 4.125 3.9866 4.125H1.9933V1.03125C1.9933 0.757745 1.8883 0.495443 1.70139 0.302046C1.51448 0.108649 1.26098 0 0.99665 0C0.732322 0 0.47882 0.108649 0.291912 0.302046C0.105004 0.495443 0 0.757745 0 1.03125L0 30.9375C0 32.075 0.893995 33 1.9933 33H30.8961C31.1605 33 31.414 32.8914 31.6009 32.698C31.7878 32.5046 31.8928 32.2423 31.8928 31.9688C31.8928 31.6952 31.7878 31.4329 31.6009 31.2395C31.414 31.0461 31.1605 30.9375 30.8961 30.9375Z" fill="url(#paint0_linear_22_36)"/>
<defs>
<linearGradient id="paint0_linear_22_36" x1="15.9464" y1="0" x2="15.9464" y2="33" gradientUnits="userSpaceOnUse">
<stop stop-color="#FFE603"/>
<stop offset="1" stop-color="#FF9900"/>
</linearGradient>
</defs>
</svg>
