<svg width="36" height="33" viewBox="0 0 36 33" fill="none" xmlns="http://www.w3.org/2000/svg">
<path d="M30.192 19.0078V31.3539C30.192 31.7997 30.0557 32.1855 29.783 32.5113C29.5103 32.8371 29.1874 33 28.8143 33H20.5478V23.1231H15.0368V33H6.77028C6.39713 33 6.07422 32.8371 5.80154 32.5113C5.52886 32.1855 5.39252 31.7997 5.39252 31.3539V19.0078C5.39252 18.9906 5.39611 18.9649 5.40329 18.9306C5.41046 18.8963 5.41405 18.8706 5.41405 18.8535L17.7923 6.66173L30.1705 18.8535C30.1849 18.8878 30.192 18.9392 30.192 19.0078ZM34.9926 17.233L33.6579 19.1364C33.5431 19.2907 33.3924 19.385 33.2059 19.4193H33.1413C32.9547 19.4193 32.804 19.3593 32.6892 19.2393L17.7923 4.39829L2.89535 19.2393C2.72313 19.3765 2.55091 19.4365 2.3787 19.4193C2.19213 19.385 2.04143 19.2907 1.92662 19.1364L0.591926 17.233C0.477114 17.0616 0.426883 16.8601 0.441235 16.6286C0.455586 16.3971 0.53452 16.2128 0.678036 16.0756L16.1562 0.668745C16.6154 0.222915 17.1608 0 17.7923 0C18.4237 0 18.9691 0.222915 19.4284 0.668745L24.681 5.91582V0.900234C24.681 0.660171 24.7456 0.462977 24.8748 0.308652C25.0039 0.154326 25.169 0.0771629 25.3699 0.0771629H29.5032C29.7041 0.0771629 29.8691 0.154326 29.9983 0.308652C30.1274 0.462977 30.192 0.660171 30.192 0.900234V11.3944L34.9065 16.0756C35.05 16.2128 35.129 16.3971 35.1433 16.6286C35.1577 16.8601 35.1074 17.0616 34.9926 17.233Z" fill="url(#paint0_linear_2_87)"/>
<defs>
<linearGradient id="paint0_linear_2_87" x1="17.7923" y1="0" x2="17.7923" y2="33" gradientUnits="userSpaceOnUse">
<stop stop-color="#00FF38"/>
<stop offset="1" stop-color="#00F0FF"/>
</linearGradient>
</defs>
</svg>
