<svg width="36" height="32" viewBox="0 0 36 32" fill="none" xmlns="http://www.w3.org/2000/svg">
<path d="M30.5573 18.4318V30.4037C30.5573 30.8361 30.4173 31.2102 30.1373 31.5261C29.8572 31.842 29.5256 32 29.1423 32H20.6524V22.4224H14.9925V32H6.50255C6.11933 32 5.78769 31.842 5.50764 31.5261C5.22759 31.2102 5.08757 30.8361 5.08757 30.4037V18.4318C5.08757 18.4152 5.09125 18.3902 5.09862 18.357C5.10599 18.3237 5.10967 18.2988 5.10967 18.2822L17.8224 6.45986L30.5352 18.2822C30.55 18.3154 30.5573 18.3653 30.5573 18.4318ZM35.4877 16.7108L34.1169 18.5565C33.999 18.7062 33.8442 18.7976 33.6526 18.8309H33.5863C33.3947 18.8309 33.2399 18.7727 33.122 18.6563L17.8224 4.265L2.5229 18.6563C2.34603 18.7893 2.16916 18.8475 1.99228 18.8309C1.80067 18.7976 1.6459 18.7062 1.52799 18.5565L0.157221 16.7108C0.0393052 16.5446 -0.0122829 16.3492 0.00245657 16.1247C0.017196 15.9002 0.098263 15.7215 0.245657 15.5885L16.1421 0.64848C16.6138 0.21616 17.1739 0 17.8224 0C18.471 0 19.0311 0.21616 19.5027 0.64848L24.8974 5.73655V0.872954C24.8974 0.640166 24.9637 0.448948 25.0964 0.299299C25.229 0.149649 25.3985 0.0748246 25.6049 0.0748246H29.8498C30.0562 0.0748246 30.2257 0.149649 30.3583 0.299299C30.491 0.448948 30.5573 0.640166 30.5573 0.872954V11.0491L35.3992 15.5885C35.5466 15.7215 35.6277 15.9002 35.6424 16.1247C35.6572 16.3492 35.6056 16.5446 35.4877 16.7108Z" fill="url(#paint0_linear_22_520)"/>
<defs>
<linearGradient id="paint0_linear_22_520" x1="17.8224" y1="0" x2="17.8224" y2="32" gradientUnits="userSpaceOnUse">
<stop stop-color="#00FF38"/>
<stop offset="1" stop-color="#00F0FF"/>
</linearGradient>
</defs>
</svg>
