<svg width="31" height="32" viewBox="0 0 31 32" fill="none" xmlns="http://www.w3.org/2000/svg">
<path d="M29.0787 30H1.87605V26H3.75209C4.00087 26 4.23946 25.8946 4.41538 25.7071C4.59129 25.5196 4.69012 25.2652 4.69012 25C4.69012 24.7348 4.59129 24.4804 4.41538 24.2929C4.23946 24.1054 4.00087 24 3.75209 24H1.87605V21C2.12483 21 2.36342 20.8946 2.53933 20.7071C2.71524 20.5196 2.81407 20.2652 2.81407 20C2.81407 19.7348 2.71524 19.4804 2.53933 19.2929C2.36342 19.1054 2.12483 19 1.87605 19V16H3.75209C4.00087 16 4.23946 15.8946 4.41538 15.7071C4.59129 15.5196 4.69012 15.2652 4.69012 15C4.69012 14.7348 4.59129 14.4804 4.41538 14.2929C4.23946 14.1054 4.00087 14 3.75209 14H1.87605V11C2.12483 11 2.36342 10.8946 2.53933 10.7071C2.71524 10.5196 2.81407 10.2652 2.81407 10C2.81407 9.73478 2.71524 9.48043 2.53933 9.29289C2.36342 9.10536 2.12483 9 1.87605 9V6H3.75209C4.00087 6 4.23946 5.89464 4.41538 5.70711C4.59129 5.51957 4.69012 5.26522 4.69012 5C4.69012 4.73478 4.59129 4.48043 4.41538 4.29289C4.23946 4.10536 4.00087 4 3.75209 4H1.87605V1C1.87605 0.734784 1.77722 0.48043 1.60131 0.292893C1.42539 0.105357 1.1868 0 0.938023 0C0.689244 0 0.450654 0.105357 0.274741 0.292893C0.0988272 0.48043 0 0.734784 0 1L0 30C0 31.103 0.841407 32 1.87605 32H29.0787C29.3275 32 29.5661 31.8946 29.742 31.7071C29.9179 31.5196 30.0168 31.2652 30.0168 31C30.0168 30.7348 29.9179 30.4804 29.742 30.2929C29.5661 30.1054 29.3275 30 29.0787 30Z" fill="url(#paint0_linear_22_525)"/>
<defs>
<linearGradient id="paint0_linear_22_525" x1="15.0084" y1="0" x2="15.0084" y2="32" gradientUnits="userSpaceOnUse">
<stop stop-color="#FFE603"/>
<stop offset="1" stop-color="#FF9900"/>
</linearGradient>
</defs>
</svg>
