<svg width="41" height="36" viewBox="0 0 41 36" fill="none" xmlns="http://www.w3.org/2000/svg">
<path d="M34.578 20.7358V34.2042C34.578 34.6906 34.4196 35.1115 34.1027 35.4669C33.7858 35.8223 33.4105 36 32.9769 36H23.3698V25.2253H16.9652V36H7.35815C6.9245 36 6.54923 35.8223 6.23233 35.4669C5.91543 35.1115 5.75698 34.6906 5.75698 34.2042V20.7358C5.75698 20.7171 5.76115 20.689 5.76949 20.6516C5.77783 20.6142 5.782 20.5861 5.782 20.5674L20.1675 7.26734L34.553 20.5674C34.5697 20.6048 34.578 20.661 34.578 20.7358ZM40.1571 18.7997L38.606 20.8761C38.4725 21.0444 38.2974 21.1473 38.0806 21.1847H38.0055C37.7887 21.1847 37.6136 21.1193 37.4801 20.9883L20.1675 4.79813L2.85486 20.9883C2.65472 21.138 2.45457 21.2034 2.25442 21.1847C2.0376 21.1473 1.86247 21.0444 1.72904 20.8761L0.177908 18.7997C0.0444769 18.6126 -0.013899 18.3928 0.00277981 18.1403C0.0194587 17.8878 0.111192 17.6867 0.277981 17.537L18.2661 0.72954C18.7998 0.24318 19.4336 0 20.1675 0C20.9014 0 21.5352 0.24318 22.0689 0.72954L28.1734 6.45362V0.982073C28.1734 0.720187 28.2484 0.505066 28.3985 0.336711C28.5486 0.168355 28.7404 0.0841777 28.9739 0.0841777H33.7774C34.0109 0.0841777 34.2028 0.168355 34.3529 0.336711C34.503 0.505066 34.578 0.720187 34.578 0.982073V12.4302L40.057 17.537C40.2238 17.6867 40.3156 17.8878 40.3322 18.1403C40.3489 18.3928 40.2905 18.6126 40.1571 18.7997Z" fill="url(#paint0_linear_1_24)"/>
<defs>
<linearGradient id="paint0_linear_1_24" x1="20.1675" y1="0" x2="20.1675" y2="36" gradientUnits="userSpaceOnUse">
<stop stop-color="#00FF38"/>
<stop offset="1" stop-color="#00F0FF"/>
</linearGradient>
</defs>
</svg>
