<svg width="55" height="60" viewBox="0 0 55 60" fill="none" xmlns="http://www.w3.org/2000/svg">
<path d="M44.1795 59.8292C42.2439 61.4256 29.8245 51.3062 27.4459 51.2839C25.0673 51.2619 12.508 61.1485 10.595 59.5163C8.68206 57.884 13.1794 41.1189 12.4627 38.5002C11.746 35.8815 -0.278739 25.1449 0.474497 22.5398C1.2279 19.9347 16.4268 19.6927 18.3624 18.0964C20.2979 16.5002 25.4256 -0.0220275 27.8044 2.20494e-05C30.1828 0.0222633 35.0789 16.6378 36.9919 18.2701C38.9048 19.9021 54.0986 20.4275 54.8155 23.0462C55.5322 25.6649 43.3592 36.176 42.6058 38.7811C41.8525 41.3862 46.1151 58.2328 44.1795 59.8292Z" fill="url(#paint0_linear_2_102)"/>
<defs>
<linearGradient id="paint0_linear_2_102" x1="0.440621" y1="30" x2="54.8459" y2="30" gradientUnits="userSpaceOnUse">
<stop stop-color="#FCD635"/>
<stop offset="1" stop-color="#F7A928"/>
</linearGradient>
</defs>
</svg>
