<svg width="36" height="30" viewBox="0 0 36 30" fill="none" xmlns="http://www.w3.org/2000/svg">
<path d="M30.5573 17.2798V28.5035C30.5573 28.9088 30.4173 29.2595 30.1373 29.5557C29.8572 29.8519 29.5256 30 29.1423 30H20.6524V21.021H14.9925V30H6.50255C6.11933 30 5.78769 29.8519 5.50764 29.5557C5.22759 29.2595 5.08757 28.9088 5.08757 28.5035V17.2798C5.08757 17.2642 5.09125 17.2408 5.09862 17.2097C5.10599 17.1785 5.10967 17.1551 5.10967 17.1395L17.8224 6.05612L30.5352 17.1395C30.55 17.1707 30.5573 17.2175 30.5573 17.2798ZM35.4877 15.6664L34.1169 17.3967C33.999 17.537 33.8442 17.6228 33.6526 17.6539H33.5863C33.3947 17.6539 33.2399 17.5994 33.122 17.4903L17.8224 3.99844L2.5229 17.4903C2.34603 17.615 2.16916 17.6695 1.99228 17.6539C1.80067 17.6228 1.6459 17.537 1.52799 17.3967L0.157221 15.6664C0.0393052 15.5105 -0.0122829 15.3274 0.00245657 15.1169C0.017196 14.9065 0.098263 14.7389 0.245657 14.6142L16.1421 0.60795C16.6138 0.20265 17.1739 0 17.8224 0C18.471 0 19.0311 0.20265 19.5027 0.60795L24.8974 5.37802V0.818394C24.8974 0.600156 24.9637 0.420889 25.0964 0.280592C25.229 0.140296 25.3985 0.0701481 25.6049 0.0701481H29.8498C30.0562 0.0701481 30.2257 0.140296 30.3583 0.280592C30.491 0.420889 30.5573 0.600156 30.5573 0.818394V10.3585L35.3992 14.6142C35.5466 14.7389 35.6277 14.9065 35.6424 15.1169C35.6572 15.3274 35.6056 15.5105 35.4877 15.6664Z" fill="url(#paint0_linear_22_370)"/>
<defs>
<linearGradient id="paint0_linear_22_370" x1="17.8224" y1="0" x2="17.8224" y2="30" gradientUnits="userSpaceOnUse">
<stop stop-color="#00FF38"/>
<stop offset="1" stop-color="#00F0FF"/>
</linearGradient>
</defs>
</svg>
