<svg width="29" height="33" viewBox="0 0 29 33" fill="none" xmlns="http://www.w3.org/2000/svg">
<path d="M27.2613 30.9375H1.75879V26.8125H3.51759C3.75082 26.8125 3.9745 26.7039 4.13942 26.5105C4.30433 26.3171 4.39698 26.0548 4.39698 25.7812C4.39698 25.5077 4.30433 25.2454 4.13942 25.052C3.9745 24.8586 3.75082 24.75 3.51759 24.75H1.75879V21.6562C1.99202 21.6562 2.2157 21.5476 2.38062 21.3542C2.54554 21.1608 2.63819 20.8985 2.63819 20.625C2.63819 20.3515 2.54554 20.0892 2.38062 19.8958C2.2157 19.7024 1.99202 19.5938 1.75879 19.5938V16.5H3.51759C3.75082 16.5 3.9745 16.3914 4.13942 16.198C4.30433 16.0046 4.39698 15.7423 4.39698 15.4688C4.39698 15.1952 4.30433 14.9329 4.13942 14.7395C3.9745 14.5461 3.75082 14.4375 3.51759 14.4375H1.75879V11.3438C1.99202 11.3438 2.2157 11.2351 2.38062 11.0417C2.54554 10.8483 2.63819 10.586 2.63819 10.3125C2.63819 10.039 2.54554 9.77669 2.38062 9.5833C2.2157 9.3899 1.99202 9.28125 1.75879 9.28125V6.1875H3.51759C3.75082 6.1875 3.9745 6.07885 4.13942 5.88545C4.30433 5.69206 4.39698 5.42975 4.39698 5.15625C4.39698 4.88275 4.30433 4.62044 4.13942 4.42705C3.9745 4.23365 3.75082 4.125 3.51759 4.125H1.75879V1.03125C1.75879 0.757745 1.66614 0.495443 1.50122 0.302046C1.33631 0.108649 1.11263 0 0.879397 0C0.646166 0 0.422488 0.108649 0.257569 0.302046C0.0926505 0.495443 0 0.757745 0 1.03125L0 30.9375C0 32.075 0.788819 33 1.75879 33H27.2613C27.4945 33 27.7182 32.8914 27.8831 32.698C28.0481 32.5046 28.1407 32.2423 28.1407 31.9688C28.1407 31.6952 28.0481 31.4329 27.8831 31.2395C27.7182 31.0461 27.4945 30.9375 27.2613 30.9375Z" fill="url(#paint0_linear_22_474)"/>
<defs>
<linearGradient id="paint0_linear_22_474" x1="14.0704" y1="0" x2="14.0704" y2="33" gradientUnits="userSpaceOnUse">
<stop stop-color="#FFE603"/>
<stop offset="1" stop-color="#FF9900"/>
</linearGradient>
</defs>
</svg>
