<svg width="49" height="38" viewBox="0 0 49 38" fill="none" xmlns="http://www.w3.org/2000/svg">
<path d="M20.5378 19C20.5378 19.8038 19.9602 20.4615 19.2542 20.4615H7.70167C6.99568 20.4615 6.41805 19.8038 6.41805 19C6.41805 18.1962 6.99568 17.5385 7.70167 17.5385H19.2542C19.9602 17.5385 20.5378 18.1962 20.5378 19ZM16.6869 27.7692H7.70167C6.99568 27.7692 6.41805 28.4269 6.41805 29.2308C6.41805 30.0346 6.99568 30.6923 7.70167 30.6923H16.6869C17.3929 30.6923 17.9706 30.0346 17.9706 29.2308C17.9706 28.4269 17.3929 27.7692 16.6869 27.7692ZM19.2542 7.30769H7.70167C6.99568 7.30769 6.41805 7.96538 6.41805 8.76923C6.41805 9.57308 6.99568 10.2308 7.70167 10.2308H19.2542C19.9602 10.2308 20.5378 9.57308 20.5378 8.76923C20.5378 7.96538 19.9602 7.30769 19.2542 7.30769ZM48.7772 1.46154V36.5385C48.7772 37.3423 48.1996 38 47.4936 38H1.28361C0.577625 38 0 37.3423 0 36.5385V1.46154C0 0.657692 0.577625 0 1.28361 0H47.4936C48.1996 0 48.7772 0.657692 48.7772 1.46154ZM46.21 2.92308H2.56722V35.0769H46.21V2.92308ZM42.295 29.2308C42.295 30.0346 41.7174 30.6923 41.0114 30.6923H23.105C22.399 30.6923 21.8214 30.0346 21.8214 29.2308C21.8214 24.4077 24.3244 20.3154 27.9827 18.4885C26.7633 17.1 25.9289 15.2 25.9289 13.1538C25.9289 9.28077 28.7529 5.84615 32.0261 5.84615C35.2993 5.84615 38.1232 9.28077 38.1232 13.1538C38.1232 15.2 37.3531 17.1 36.0695 18.4885C39.7278 20.3154 42.295 24.4077 42.295 29.2308ZM28.4962 13.1538C28.4962 15.2 30.0365 17.5385 32.0261 17.5385C34.0157 17.5385 35.556 15.2 35.556 13.1538C35.556 11.1077 34.0157 8.76923 32.0261 8.76923C30.0365 8.76923 28.4962 11.1077 28.4962 13.1538ZM39.6636 27.7692C39.086 23.6038 35.8769 20.4615 32.0903 20.4615C28.3036 20.4615 25.1588 23.6038 24.517 27.7692H39.6636Z" fill="url(#paint0_linear_1_19)"/>
<defs>
<linearGradient id="paint0_linear_1_19" x1="-5.24938e-07" y1="-3.16667" x2="27.8857" y2="35.4764" gradientUnits="userSpaceOnUse">
<stop stop-color="#FF0000"/>
<stop offset="1" stop-color="#FF9900"/>
</linearGradient>
</defs>
</svg>
