<svg width="35" height="35" viewBox="0 0 35 35" fill="none" xmlns="http://www.w3.org/2000/svg">
<path d="M29.7532 20.1598V33.2541C29.7532 33.7269 29.6168 34.1361 29.3442 34.4817C29.0715 34.8272 28.7486 35 28.3754 35H20.1089V24.5246H14.5979V35H6.33143C5.95829 35 5.63538 34.8272 5.3627 34.4817C5.09002 34.1361 4.95368 33.7269 4.95368 33.2541V20.1598C4.95368 20.1416 4.95727 20.1143 4.96445 20.0779C4.97162 20.0416 4.97521 20.0143 4.97521 19.9961L17.3534 7.06547L29.7317 19.9961C29.746 20.0325 29.7532 20.087 29.7532 20.1598ZM34.5538 18.2775L33.2191 20.2962C33.1043 20.4599 32.9536 20.5599 32.767 20.5963H32.7024C32.5159 20.5963 32.3652 20.5326 32.2504 20.4053L17.3534 4.66485L2.45651 20.4053C2.28429 20.5508 2.11207 20.6144 1.93985 20.5963C1.75328 20.5599 1.60259 20.4599 1.48778 20.2962L0.153083 18.2775C0.0382708 18.0956 -0.0119596 17.8819 0.00239193 17.6364C0.0167435 17.3909 0.0956771 17.1954 0.239193 17.0499L15.7174 0.709275C16.1766 0.236425 16.722 0 17.3534 0C17.9849 0 18.5303 0.236425 18.9895 0.709275L24.2422 6.27436V0.954793C24.2422 0.700182 24.3068 0.491037 24.4359 0.327358C24.5651 0.163679 24.7301 0.0818394 24.9311 0.0818394H29.0643C29.2652 0.0818394 29.4303 0.163679 29.5594 0.327358C29.6886 0.491037 29.7532 0.700182 29.7532 0.954793V12.085L34.4677 17.0499C34.6112 17.1954 34.6901 17.3909 34.7045 17.6364C34.7188 17.8819 34.6686 18.0956 34.5538 18.2775Z" fill="url(#paint0_linear_22_310)"/>
<defs>
<linearGradient id="paint0_linear_22_310" x1="17.3534" y1="0" x2="17.3534" y2="35" gradientUnits="userSpaceOnUse">
<stop stop-color="#00FF38"/>
<stop offset="1" stop-color="#00F0FF"/>
</linearGradient>
</defs>
</svg>
