<svg width="21" height="16" viewBox="0 0 21 16" fill="none" xmlns="http://www.w3.org/2000/svg">
<path d="M19.699 6.99463C19.9477 6.99463 20.1861 6.88935 20.3619 6.70196C20.5377 6.51457 20.6365 6.26041 20.6365 5.9954V0.999233C20.6365 0.933783 20.63 0.867833 20.6182 0.803383C20.6121 0.773406 20.6018 0.745927 20.5939 0.716949C20.5845 0.683475 20.5775 0.649501 20.5648 0.617026C20.5512 0.583052 20.5329 0.551577 20.516 0.519601C20.5034 0.494621 20.4931 0.46864 20.4785 0.445658C20.4095 0.335843 20.321 0.241477 20.2179 0.167871C20.1959 0.152383 20.1715 0.141392 20.1485 0.127902C20.1185 0.110415 20.089 0.0909304 20.0571 0.0759419C20.0267 0.0629519 19.9948 0.0549579 19.9634 0.0449655C19.9362 0.0364721 19.9104 0.0254805 19.8823 0.0189855C19.8219 0.0066585 19.7605 0.000303006 19.699 0H15.0115C14.7629 0 14.5244 0.105276 14.3486 0.292669C14.1728 0.480061 14.074 0.73422 14.074 0.999233C14.074 1.26425 14.1728 1.5184 14.3486 1.7058C14.5244 1.89319 14.7629 1.99847 15.0115 1.99847H17.4359L8.44902 11.5771L6.29933 9.28587C6.12352 9.09854 5.88511 8.99331 5.63652 8.99331C5.38793 8.99331 5.14951 9.09854 4.97371 9.28587L0.286208 14.282C0.196667 14.3742 0.125246 14.4845 0.0761127 14.6064C0.0269792 14.7283 0.0011171 14.8594 3.53972e-05 14.9921C-0.00104631 15.1248 0.0226738 15.2563 0.0698122 15.3791C0.11695 15.5019 0.186563 15.6135 0.274587 15.7073C0.362612 15.8012 0.467285 15.8753 0.582501 15.9256C0.697716 15.9758 0.821166 16.0011 0.945646 16C1.07013 15.9988 1.19315 15.9712 1.30752 15.9189C1.4219 15.8665 1.52535 15.7904 1.61183 15.6949L5.63652 11.4052L7.78621 13.6965C7.96201 13.8838 8.20043 13.989 8.44902 13.989C8.69761 13.989 8.93602 13.8838 9.11183 13.6965L18.7615 3.41138V5.9954C18.7615 6.26041 18.8603 6.51457 19.0361 6.70196C19.2119 6.88935 19.4504 6.99463 19.699 6.99463Z" fill="url(#paint0_linear_22_51)"/>
<defs>
<linearGradient id="paint0_linear_22_51" x1="10.3183" y1="0" x2="10.3183" y2="16" gradientUnits="userSpaceOnUse">
<stop stop-color="#FFE603"/>
<stop offset="1" stop-color="#FF9900"/>
</linearGradient>
</defs>
</svg>
