<svg width="36" height="35" viewBox="0 0 36 35" fill="none" xmlns="http://www.w3.org/2000/svg">
<path d="M30.5573 20.1598V33.2541C30.5573 33.7269 30.4173 34.1361 30.1373 34.4817C29.8572 34.8272 29.5256 35 29.1423 35H20.6524V24.5246H14.9925V35H6.50255C6.11933 35 5.78769 34.8272 5.50764 34.4817C5.22759 34.1361 5.08757 33.7269 5.08757 33.2541V20.1598C5.08757 20.1416 5.09125 20.1143 5.09862 20.0779C5.10599 20.0416 5.10967 20.0143 5.10967 19.9961L17.8224 7.06547L30.5352 19.9961C30.55 20.0325 30.5573 20.087 30.5573 20.1598ZM35.4877 18.2775L34.1169 20.2962C33.999 20.4599 33.8442 20.5599 33.6526 20.5963H33.5863C33.3947 20.5963 33.2399 20.5326 33.122 20.4053L17.8224 4.66485L2.5229 20.4053C2.34603 20.5508 2.16916 20.6144 1.99228 20.5963C1.80067 20.5599 1.6459 20.4599 1.52799 20.2962L0.157221 18.2775C0.0393052 18.0956 -0.0122829 17.8819 0.00245657 17.6364C0.017196 17.3909 0.098263 17.1954 0.245657 17.0499L16.1421 0.709275C16.6138 0.236425 17.1739 0 17.8224 0C18.471 0 19.0311 0.236425 19.5027 0.709275L24.8974 6.27436V0.954793C24.8974 0.700182 24.9637 0.491037 25.0964 0.327358C25.229 0.163679 25.3985 0.0818394 25.6049 0.0818394H29.8498C30.0562 0.0818394 30.2257 0.163679 30.3583 0.327358C30.491 0.491037 30.5573 0.700182 30.5573 0.954793V12.085L35.3992 17.0499C35.5466 17.1954 35.6277 17.3909 35.6424 17.6364C35.6572 17.8819 35.6056 18.0956 35.4877 18.2775Z" fill="url(#paint0_linear_22_295)"/>
<defs>
<linearGradient id="paint0_linear_22_295" x1="17.8224" y1="0" x2="17.8224" y2="35" gradientUnits="userSpaceOnUse">
<stop stop-color="#00FF38"/>
<stop offset="1" stop-color="#00F0FF"/>
</linearGradient>
</defs>
</svg>
