<svg width="28" height="33" viewBox="0 0 28 33" fill="none" xmlns="http://www.w3.org/2000/svg">
<path d="M26.3526 30.9375H1.70017V26.8125H3.40034C3.62579 26.8125 3.84201 26.7039 4.00143 26.5105C4.16086 26.3171 4.25042 26.0548 4.25042 25.7812C4.25042 25.5077 4.16086 25.2454 4.00143 25.052C3.84201 24.8586 3.62579 24.75 3.40034 24.75H1.70017V21.6562C1.92562 21.6562 2.14185 21.5476 2.30127 21.3542C2.46069 21.1608 2.55025 20.8985 2.55025 20.625C2.55025 20.3515 2.46069 20.0892 2.30127 19.8958C2.14185 19.7024 1.92562 19.5938 1.70017 19.5938V16.5H3.40034C3.62579 16.5 3.84201 16.3914 4.00143 16.198C4.16086 16.0046 4.25042 15.7423 4.25042 15.4688C4.25042 15.1952 4.16086 14.9329 4.00143 14.7395C3.84201 14.5461 3.62579 14.4375 3.40034 14.4375H1.70017V11.3438C1.92562 11.3438 2.14185 11.2351 2.30127 11.0417C2.46069 10.8483 2.55025 10.586 2.55025 10.3125C2.55025 10.039 2.46069 9.77669 2.30127 9.5833C2.14185 9.3899 1.92562 9.28125 1.70017 9.28125V6.1875H3.40034C3.62579 6.1875 3.84201 6.07885 4.00143 5.88545C4.16086 5.69206 4.25042 5.42975 4.25042 5.15625C4.25042 4.88275 4.16086 4.62044 4.00143 4.42705C3.84201 4.23365 3.62579 4.125 3.40034 4.125H1.70017V1.03125C1.70017 0.757745 1.61061 0.495443 1.45118 0.302046C1.29176 0.108649 1.07554 0 0.850084 0C0.624628 0 0.408405 0.108649 0.248984 0.302046C0.0895622 0.495443 0 0.757745 0 1.03125L0 30.9375C0 32.075 0.762525 33 1.70017 33H26.3526C26.5781 33 26.7943 32.8914 26.9537 32.698C27.1131 32.5046 27.2027 32.2423 27.2027 31.9688C27.2027 31.6952 27.1131 31.4329 26.9537 31.2395C26.7943 31.0461 26.5781 30.9375 26.3526 30.9375Z" fill="url(#paint0_linear_22_186)"/>
<defs>
<linearGradient id="paint0_linear_22_186" x1="13.6013" y1="0" x2="13.6013" y2="33" gradientUnits="userSpaceOnUse">
<stop stop-color="#FFE603"/>
<stop offset="1" stop-color="#FF9900"/>
</linearGradient>
</defs>
</svg>
