<svg width="482" height="20" viewBox="0 0 482 20" fill="none" xmlns="http://www.w3.org/2000/svg">
<path d="M2 4.23519C4.29796 4.23519 6.64422 2.82517 8.65103 2.32341C11.4279 1.6291 15.0837 2.26879 17.9236 2.26879C24.7024 2.26879 34.39 1.78209 40.4983 5.21839C44.6174 7.53568 51.7181 6.49237 56.3734 7.40328C60.9716 8.30304 66.366 9.15119 71.0347 9.15119C81.4582 9.15119 91.9259 11.1176 102.494 11.1176C106.669 11.1176 113.628 11.1 117.446 13.2479C121.197 15.3579 123.658 18 127.981 18C131.557 18 134.971 17.1592 138.516 17.0168C143.732 16.8072 148.926 14.7403 154.1 14.0126C159.966 13.1875 165.551 11.8393 171.48 11.1722C185.947 9.54449 201.037 12.6695 215.415 9.9159C222.895 8.48357 230.752 9.15119 238.33 9.15119C245.32 9.15119 252.416 8.16799 259.497 8.16799C267.628 8.16799 276.842 8.26587 284.936 9.36968C293.088 10.4815 301.528 9.86314 309.598 11.6092C323.614 14.6419 338.749 11.3989 352.902 13.8487C356.834 14.5292 361.081 14.0672 365.039 14.0672C368.548 14.0672 370.992 16.0336 374.263 16.0336C382.671 16.0336 390.044 14.0672 398.294 14.0672C403.279 14.0672 407.73 16.0336 412.519 16.0336C416.054 16.0336 417.506 15.1638 420.578 14.1764C427.392 11.9857 434.641 12.4082 441.744 12.1008C445.572 11.9352 449.197 9.80274 452.91 9.20581C456.055 8.7003 459.124 9.16636 462.037 7.67639C467.77 4.74474 474.821 8.11972 480 4.23519" stroke="black" stroke-width="3" stroke-linecap="round"/>
</svg>
