<svg width="32" height="30" viewBox="0 0 32 30" fill="none" xmlns="http://www.w3.org/2000/svg">
<path d="M30.8961 28.125H1.9933V24.375H3.9866C4.25093 24.375 4.50443 24.2762 4.69134 24.1004C4.87825 23.9246 4.98325 23.6861 4.98325 23.4375C4.98325 23.1889 4.87825 22.9504 4.69134 22.7746C4.50443 22.5988 4.25093 22.5 3.9866 22.5H1.9933V19.6875C2.25763 19.6875 2.51113 19.5887 2.69804 19.4129C2.88495 19.2371 2.98995 18.9986 2.98995 18.75C2.98995 18.5014 2.88495 18.2629 2.69804 18.0871C2.51113 17.9113 2.25763 17.8125 1.9933 17.8125V15H3.9866C4.25093 15 4.50443 14.9012 4.69134 14.7254C4.87825 14.5496 4.98325 14.3111 4.98325 14.0625C4.98325 13.8139 4.87825 13.5754 4.69134 13.3996C4.50443 13.2238 4.25093 13.125 3.9866 13.125H1.9933V10.3125C2.25763 10.3125 2.51113 10.2137 2.69804 10.0379C2.88495 9.8621 2.98995 9.62364 2.98995 9.375C2.98995 9.12636 2.88495 8.8879 2.69804 8.71209C2.51113 8.53627 2.25763 8.4375 1.9933 8.4375V5.625H3.9866C4.25093 5.625 4.50443 5.52623 4.69134 5.35041C4.87825 5.1746 4.98325 4.93614 4.98325 4.6875C4.98325 4.43886 4.87825 4.2004 4.69134 4.02459C4.50443 3.84877 4.25093 3.75 3.9866 3.75H1.9933V0.9375C1.9933 0.68886 1.8883 0.450403 1.70139 0.274587C1.51448 0.0987721 1.26098 0 0.99665 0C0.732322 0 0.47882 0.0987721 0.291912 0.274587C0.105004 0.450403 0 0.68886 0 0.9375L0 28.125C0 29.1591 0.893995 30 1.9933 30H30.8961C31.1605 30 31.414 29.9012 31.6009 29.7254C31.7878 29.5496 31.8928 29.3111 31.8928 29.0625C31.8928 28.8139 31.7878 28.5754 31.6009 28.3996C31.414 28.2238 31.1605 28.125 30.8961 28.125Z" fill="url(#paint0_linear_22_152)"/>
<defs>
<linearGradient id="paint0_linear_22_152" x1="15.9464" y1="0" x2="15.9464" y2="30" gradientUnits="userSpaceOnUse">
<stop stop-color="#FFE603"/>
<stop offset="1" stop-color="#FF9900"/>
</linearGradient>
</defs>
</svg>
