<svg width="55" height="60" viewBox="0 0 55 60" fill="none" xmlns="http://www.w3.org/2000/svg">
<path d="M44.3235 59.8292C42.388 61.4256 29.9685 51.3062 27.5899 51.2839C25.2113 51.2619 12.6521 61.1485 10.7391 59.5163C8.8261 57.884 13.3234 41.1189 12.6067 38.5002C11.89 35.8815 -0.134696 25.1449 0.61854 22.5398C1.37194 19.9347 16.5709 19.6927 18.5064 18.0964C20.442 16.5002 25.5697 -0.0220275 27.9485 2.20494e-05C30.3269 0.0222633 35.2229 16.6378 37.1359 18.2701C39.0489 19.9021 54.2427 20.4275 54.9595 23.0462C55.6762 25.6649 43.5032 36.176 42.7498 38.7811C41.9966 41.3862 46.2591 58.2328 44.3235 59.8292Z" fill="url(#paint0_linear_2_101)"/>
<defs>
<linearGradient id="paint0_linear_2_101" x1="0.584664" y1="30" x2="54.9899" y2="30" gradientUnits="userSpaceOnUse">
<stop stop-color="#FCD635"/>
<stop offset="1" stop-color="#F7A928"/>
</linearGradient>
</defs>
</svg>
