<svg width="43" height="35" viewBox="0 0 43 35" fill="none" xmlns="http://www.w3.org/2000/svg">
<path d="M36.1863 20.1598V33.2541C36.1863 33.7269 36.0205 34.1361 35.6889 34.4817C35.3572 34.8272 34.9645 35 34.5107 35H24.4568V24.5246H17.7542V35H7.70039C7.24657 35 6.85384 34.8272 6.5222 34.4817C6.19057 34.1361 6.02475 33.7269 6.02475 33.2541V20.1598C6.02475 20.1416 6.02911 20.1143 6.03784 20.0779C6.04657 20.0416 6.05093 20.0143 6.05093 19.9961L21.1055 7.06547L36.1601 19.9961C36.1776 20.0325 36.1863 20.087 36.1863 20.1598ZM42.0249 18.2775L40.4016 20.2962C40.262 20.4599 40.0787 20.5599 39.8518 20.5963H39.7732C39.5463 20.5963 39.363 20.5326 39.2234 20.4053L21.1055 4.66485L2.98765 20.4053C2.77819 20.5508 2.56874 20.6144 2.35928 20.5963C2.13237 20.5599 1.9491 20.4599 1.80946 20.2962L0.186182 18.2775C0.0465456 18.0956 -0.0145455 17.8819 0.0029091 17.6364C0.0203637 17.3909 0.116364 17.1954 0.29091 17.0499L19.1157 0.709275C19.6743 0.236425 20.3375 0 21.1055 0C21.8735 0 22.5368 0.236425 23.0954 0.709275L29.4837 6.27436V0.954793C29.4837 0.700182 29.5623 0.491037 29.7194 0.327358C29.8765 0.163679 30.0772 0.0818394 30.3216 0.0818394H35.3485C35.5929 0.0818394 35.7936 0.163679 35.9507 0.327358C36.1078 0.491037 36.1863 0.700182 36.1863 0.954793V12.085L41.9201 17.0499C42.0947 17.1954 42.1907 17.3909 42.2081 17.6364C42.2256 17.8819 42.1645 18.0956 42.0249 18.2775Z" fill="url(#paint0_linear_1_52)"/>
<defs>
<linearGradient id="paint0_linear_1_52" x1="21.1055" y1="0" x2="21.1055" y2="35" gradientUnits="userSpaceOnUse">
<stop stop-color="#00FF38"/>
<stop offset="1" stop-color="#00F0FF"/>
</linearGradient>
</defs>
</svg>
