<svg width="36" height="29" viewBox="0 0 36 29" fill="none" xmlns="http://www.w3.org/2000/svg">
<path d="M30.5573 16.7038V27.5534C30.5573 27.9452 30.4173 28.2842 30.1373 28.5705C29.8572 28.8568 29.5256 29 29.1423 29H20.6524V20.3203H14.9925V29H6.50255C6.11933 29 5.78769 28.8568 5.50764 28.5705C5.22759 28.2842 5.08757 27.9452 5.08757 27.5534V16.7038C5.08757 16.6888 5.09125 16.6661 5.09862 16.636C5.10599 16.6059 5.10967 16.5833 5.10967 16.5682L17.8224 5.85425L30.5352 16.5682C30.55 16.5983 30.5573 16.6435 30.5573 16.7038ZM35.4877 15.1442L34.1169 16.8168C33.999 16.9525 33.8442 17.0353 33.6526 17.0655H33.5863C33.3947 17.0655 33.2399 17.0127 33.122 16.9072L17.8224 3.86516L2.5229 16.9072C2.34603 17.0278 2.16916 17.0805 1.99228 17.0655C1.80067 17.0353 1.6459 16.9525 1.52799 16.8168L0.157221 15.1442C0.0393052 14.9935 -0.0122829 14.8164 0.00245657 14.613C0.017196 14.4096 0.098263 14.2476 0.245657 14.127L16.1421 0.587685C16.6138 0.195895 17.1739 0 17.8224 0C18.471 0 19.0311 0.195895 19.5027 0.587685L24.8974 5.19875V0.791115C24.8974 0.580151 24.9637 0.406859 25.0964 0.271239C25.229 0.13562 25.3985 0.0678098 25.6049 0.0678098H29.8498C30.0562 0.0678098 30.2257 0.13562 30.3583 0.271239C30.491 0.406859 30.5573 0.580151 30.5573 0.791115V10.0133L35.3992 14.127C35.5466 14.2476 35.6277 14.4096 35.6424 14.613C35.6572 14.8164 35.6056 14.9935 35.4877 15.1442Z" fill="url(#paint0_linear_22_221)"/>
<defs>
<linearGradient id="paint0_linear_22_221" x1="17.8224" y1="0" x2="17.8224" y2="29" gradientUnits="userSpaceOnUse">
<stop stop-color="#00FF38"/>
<stop offset="1" stop-color="#00F0FF"/>
</linearGradient>
</defs>
</svg>
