<svg width="55" height="60" viewBox="0 0 55 60" fill="none" xmlns="http://www.w3.org/2000/svg">
<path d="M43.8294 59.8292C41.8938 61.4256 29.4744 51.3062 27.0958 51.2839C24.7172 51.2619 12.1579 61.1485 10.2449 59.5163C8.33196 57.884 12.8293 41.1189 12.1126 38.5002C11.3959 35.8815 -0.628837 25.1449 0.124399 22.5398C0.877802 19.9347 16.0767 19.6927 18.0123 18.0964C19.9479 16.5002 25.0755 -0.0220275 27.4543 2.20494e-05C29.8328 0.0222633 34.7288 16.6378 36.6418 18.2701C38.5547 19.9021 53.7485 20.4275 54.4654 23.0462C55.1821 25.6649 43.0091 36.176 42.2557 38.7811C41.5024 41.3862 45.765 58.2328 43.8294 59.8292Z" fill="url(#paint0_linear_2_104)"/>
<defs>
<linearGradient id="paint0_linear_2_104" x1="0.0905237" y1="30" x2="54.4958" y2="30" gradientUnits="userSpaceOnUse">
<stop stop-color="#FCD635"/>
<stop offset="1" stop-color="#F7A928"/>
</linearGradient>
</defs>
</svg>
