<svg width="34" height="34" viewBox="0 0 34 34" fill="none" xmlns="http://www.w3.org/2000/svg">
<path d="M28.949 19.5838V32.304C28.949 32.7633 28.8164 33.1608 28.5511 33.4965C28.2858 33.8322 27.9716 34 27.6085 34H19.5655V23.8238H14.2034V34H6.16031C5.79726 34 5.48307 33.8322 5.21776 33.4965C4.95245 33.1608 4.8198 32.7633 4.8198 32.304V19.5838C4.8198 19.5661 4.82329 19.5396 4.83027 19.5043C4.83725 19.469 4.84074 19.4425 4.84074 19.4248L16.8844 6.8636L28.9281 19.4248C28.9421 19.4601 28.949 19.5131 28.949 19.5838ZM33.6199 17.7553L32.3213 19.7163C32.2096 19.8753 32.0629 19.9725 31.8814 20.0078H31.8186C31.6371 20.0078 31.4904 19.946 31.3787 19.8223L16.8844 4.53157L2.39012 19.8223C2.22255 19.9636 2.05499 20.0255 1.88742 20.0078C1.7059 19.9725 1.55928 19.8753 1.44757 19.7163L0.148946 17.7553C0.0372365 17.5786 -0.0116364 17.371 0.00232728 17.1325C0.016291 16.894 0.0930912 16.7041 0.232728 16.5627L15.2926 0.68901C15.7394 0.22967 16.27 0 16.8844 0C17.4988 0 18.0294 0.22967 18.4763 0.68901L23.587 6.09509V0.927514C23.587 0.680177 23.6498 0.477007 23.7755 0.318005C23.9012 0.159002 24.0618 0.0795012 24.2572 0.0795012H28.2788C28.4743 0.0795012 28.6349 0.159002 28.7605 0.318005C28.8862 0.477007 28.949 0.680177 28.949 0.927514V11.7397L33.5361 16.5627C33.6758 16.7041 33.7526 16.894 33.7665 17.1325C33.7805 17.371 33.7316 17.5786 33.6199 17.7553Z" fill="url(#paint0_linear_22_181)"/>
<defs>
<linearGradient id="paint0_linear_22_181" x1="16.8844" y1="0" x2="16.8844" y2="34" gradientUnits="userSpaceOnUse">
<stop stop-color="#00FF38"/>
<stop offset="1" stop-color="#00F0FF"/>
</linearGradient>
</defs>
</svg>
