<svg width="36" height="31" viewBox="0 0 36 31" fill="none" xmlns="http://www.w3.org/2000/svg">
<path d="M30.5573 17.8558V29.4536C30.5573 29.8724 30.4173 30.2349 30.1373 30.5409C29.8572 30.847 29.5256 31 29.1423 31H20.6524V21.7217H14.9925V31H6.50255C6.11933 31 5.78769 30.847 5.50764 30.5409C5.22759 30.2349 5.08757 29.8724 5.08757 29.4536V17.8558C5.08757 17.8397 5.09125 17.8155 5.09862 17.7833C5.10599 17.7511 5.10967 17.7269 5.10967 17.7108L17.8224 6.25799L30.5352 17.7108C30.55 17.743 30.5573 17.7914 30.5573 17.8558ZM35.4877 16.1886L34.1169 17.9766C33.999 18.1216 33.8442 18.2102 33.6526 18.2424H33.5863C33.3947 18.2424 33.2399 18.186 33.122 18.0733L17.8224 4.13172L2.5229 18.0733C2.34603 18.2021 2.16916 18.2585 1.99228 18.2424C1.80067 18.2102 1.6459 18.1216 1.52799 17.9766L0.157221 16.1886C0.0393052 16.0275 -0.0122829 15.8383 0.00245657 15.6208C0.017196 15.4034 0.098263 15.2302 0.245657 15.1013L16.1421 0.628215C16.6138 0.209405 17.1739 0 17.8224 0C18.471 0 19.0311 0.209405 19.5027 0.628215L24.8974 5.55729V0.845674C24.8974 0.620161 24.9637 0.434918 25.0964 0.289945C25.229 0.144973 25.3985 0.0724864 25.6049 0.0724864H29.8498C30.0562 0.0724864 30.2257 0.144973 30.3583 0.289945C30.491 0.434918 30.5573 0.620161 30.5573 0.845674V10.7038L35.3992 15.1013C35.5466 15.2302 35.6277 15.4034 35.6424 15.6208C35.6572 15.8383 35.6056 16.0275 35.4877 16.1886Z" fill="url(#paint0_linear_22_127)"/>
<defs>
<linearGradient id="paint0_linear_22_127" x1="17.8224" y1="0" x2="17.8224" y2="31" gradientUnits="userSpaceOnUse">
<stop stop-color="#00FF38"/>
<stop offset="1" stop-color="#00F0FF"/>
</linearGradient>
</defs>
</svg>
