<svg width="31" height="37" viewBox="0 0 31 37" fill="none" xmlns="http://www.w3.org/2000/svg">
<path d="M29.0787 34.6875H1.87605V30.0625H3.75209C4.00087 30.0625 4.23946 29.9407 4.41538 29.7238C4.59129 29.507 4.69012 29.2129 4.69012 28.9062C4.69012 28.5996 4.59129 28.3055 4.41538 28.0887C4.23946 27.8718 4.00087 27.75 3.75209 27.75H1.87605V24.2812C2.12483 24.2812 2.36342 24.1594 2.53933 23.9426C2.71524 23.7258 2.81407 23.4317 2.81407 23.125C2.81407 22.8183 2.71524 22.5242 2.53933 22.3074C2.36342 22.0906 2.12483 21.9688 1.87605 21.9688V18.5H3.75209C4.00087 18.5 4.23946 18.3782 4.41538 18.1613C4.59129 17.9445 4.69012 17.6504 4.69012 17.3438C4.69012 17.0371 4.59129 16.743 4.41538 16.5262C4.23946 16.3093 4.00087 16.1875 3.75209 16.1875H1.87605V12.7188C2.12483 12.7188 2.36342 12.5969 2.53933 12.3801C2.71524 12.1633 2.81407 11.8692 2.81407 11.5625C2.81407 11.2558 2.71524 10.9617 2.53933 10.7449C2.36342 10.5281 2.12483 10.4062 1.87605 10.4062V6.9375H3.75209C4.00087 6.9375 4.23946 6.81568 4.41538 6.59884C4.59129 6.382 4.69012 6.08791 4.69012 5.78125C4.69012 5.47459 4.59129 5.1805 4.41538 4.96366C4.23946 4.74682 4.00087 4.625 3.75209 4.625H1.87605V1.15625C1.87605 0.849593 1.77722 0.555497 1.60131 0.338658C1.42539 0.121819 1.1868 0 0.938023 0C0.689244 0 0.450654 0.121819 0.274741 0.338658C0.0988272 0.555497 0 0.849593 0 1.15625L0 34.6875C0 35.9628 0.841407 37 1.87605 37H29.0787C29.3275 37 29.5661 36.8782 29.742 36.6613C29.9179 36.4445 30.0168 36.1504 30.0168 35.8438C30.0168 35.5371 29.9179 35.243 29.742 35.0262C29.5661 34.8093 29.3275 34.6875 29.0787 34.6875Z" fill="url(#paint0_linear_22_300)"/>
<defs>
<linearGradient id="paint0_linear_22_300" x1="15.0084" y1="0" x2="15.0084" y2="37" gradientUnits="userSpaceOnUse">
<stop stop-color="#FFE603"/>
<stop offset="1" stop-color="#FF9900"/>
</linearGradient>
</defs>
</svg>
