<svg width="23" height="18" viewBox="0 0 23 18" fill="none" xmlns="http://www.w3.org/2000/svg">
<path d="M21.4898 7.86896C21.7611 7.86896 22.0212 7.75052 22.213 7.5397C22.4048 7.32889 22.5126 7.04296 22.5126 6.74482V1.12414C22.5126 1.05051 22.5054 0.976312 22.4926 0.903806C22.486 0.870082 22.4747 0.839168 22.466 0.806568C22.4558 0.768909 22.4481 0.730689 22.4343 0.694155C22.4195 0.655934 22.3996 0.620524 22.3811 0.584552C22.3673 0.556448 22.3561 0.52722 22.3402 0.501365C22.2649 0.377823 22.1683 0.271662 22.0559 0.188855C22.0319 0.171431 22.0053 0.159066 21.9802 0.14389C21.9475 0.124217 21.9153 0.102297 21.8805 0.0854346C21.8473 0.0708208 21.8125 0.0618276 21.7782 0.0505862C21.7486 0.0410311 21.7205 0.0286655 21.6898 0.0213587C21.6239 0.00749082 21.5569 0.000340882 21.4898 0H16.3762C16.105 0 15.8448 0.118436 15.653 0.329252C15.4612 0.540069 15.3535 0.825997 15.3535 1.12414C15.3535 1.42228 15.4612 1.7082 15.653 1.91902C15.8448 2.12984 16.105 2.24827 16.3762 2.24827H19.021L9.21711 13.0242L6.872 10.4466C6.68021 10.2359 6.42012 10.1175 6.14893 10.1175C5.87774 10.1175 5.61765 10.2359 5.42586 10.4466L0.312227 16.0673C0.214546 16.171 0.136632 16.295 0.083032 16.4322C0.0294319 16.5693 0.00121865 16.7168 3.86152e-05 16.8661C-0.00114142 17.0154 0.0247351 17.1634 0.0761587 17.3015C0.127582 17.4397 0.203523 17.5652 0.29955 17.6707C0.395576 17.7763 0.509766 17.8598 0.635455 17.9163C0.761145 17.9728 0.895817 18.0013 1.03161 18C1.16741 17.9987 1.30161 17.9676 1.42639 17.9087C1.55117 17.8498 1.66402 17.7642 1.75836 17.6568L6.14893 12.8309L8.49404 15.4085C8.68583 15.6193 8.94592 15.7377 9.21711 15.7377C9.4883 15.7377 9.74839 15.6193 9.94018 15.4085L20.4671 3.8378V6.74482C20.4671 7.04296 20.5749 7.32889 20.7667 7.5397C20.9585 7.75052 21.2186 7.86896 21.4898 7.86896Z" fill="url(#paint0_linear_22_241)"/>
<defs>
<linearGradient id="paint0_linear_22_241" x1="11.2563" y1="0" x2="11.2563" y2="18" gradientUnits="userSpaceOnUse">
<stop stop-color="#FFE603"/>
<stop offset="1" stop-color="#FF9900"/>
</linearGradient>
</defs>
</svg>
