<svg width="20" height="18" viewBox="0 0 20 18" fill="none" xmlns="http://www.w3.org/2000/svg">
<path d="M18.8036 7.86896C19.0409 7.86896 19.2686 7.75052 19.4364 7.5397C19.6042 7.32889 19.6985 7.04296 19.6985 6.74482V1.12414C19.6985 1.05051 19.6922 0.976312 19.681 0.903806C19.6752 0.870082 19.6654 0.839168 19.6578 0.806568C19.6488 0.768909 19.6421 0.730689 19.63 0.694155C19.6171 0.655934 19.5996 0.620524 19.5835 0.584552C19.5714 0.556448 19.5616 0.52722 19.5477 0.501365C19.4818 0.377823 19.3973 0.271662 19.2989 0.188855C19.2779 0.171431 19.2546 0.159066 19.2327 0.14389C19.2041 0.124217 19.1759 0.102297 19.1455 0.0854346C19.1164 0.0708208 19.0859 0.0618276 19.056 0.0505862C19.03 0.0410311 19.0054 0.0286655 18.9786 0.0213587C18.9209 0.00749082 18.8623 0.000340882 18.8036 0H14.3292C14.0918 0 13.8642 0.118436 13.6964 0.329252C13.5286 0.540069 13.4343 0.825997 13.4343 1.12414C13.4343 1.42228 13.5286 1.7082 13.6964 1.91902C13.8642 2.12984 14.0918 2.24827 14.3292 2.24827H16.6434L8.06497 13.0242L6.013 10.4466C5.84518 10.2359 5.6176 10.1175 5.38031 10.1175C5.14302 10.1175 4.91544 10.2359 4.74763 10.4466L0.273198 16.0673C0.187728 16.171 0.119553 16.295 0.072653 16.4322C0.0257529 16.5693 0.00106632 16.7168 3.37883e-05 16.8661C-0.000998746 17.0154 0.0216432 17.1634 0.0666389 17.3015C0.111635 17.4397 0.178083 17.5652 0.262106 17.6707C0.346129 17.7763 0.446045 17.8598 0.556023 17.9163C0.666002 17.9728 0.78384 18.0013 0.902662 18C1.02148 17.9987 1.13891 17.9676 1.24809 17.9087C1.35727 17.8498 1.45602 17.7642 1.53857 17.6568L5.38031 12.8309L7.43229 15.4085C7.6001 15.6193 7.82768 15.7377 8.06497 15.7377C8.30226 15.7377 8.52984 15.6193 8.69766 15.4085L17.9087 3.8378V6.74482C17.9087 7.04296 18.003 7.32889 18.1708 7.5397C18.3386 7.75052 18.5663 7.86896 18.8036 7.86896Z" fill="url(#paint0_linear_22_475)"/>
<defs>
<linearGradient id="paint0_linear_22_475" x1="9.84925" y1="0" x2="9.84925" y2="18" gradientUnits="userSpaceOnUse">
<stop stop-color="#FFE603"/>
<stop offset="1" stop-color="#FF9900"/>
</linearGradient>
</defs>
</svg>
