<svg width="53" height="57" viewBox="0 0 53 57" fill="none" xmlns="http://www.w3.org/2000/svg">
<path d="M42.2307 56.8377C40.3619 58.3543 28.3707 48.7409 26.0741 48.7197C23.7775 48.6988 11.6514 58.0911 9.80433 56.5405C7.95732 54.9898 12.2996 39.063 11.6076 36.5752C10.9156 34.0874 -0.694488 23.8877 0.0327748 21.4128C0.760198 18.938 15.435 18.7081 17.3038 17.1915C19.1727 15.6752 24.1235 -0.0209261 26.4203 2.09469e-05C28.7167 0.0211501 33.4439 15.8059 35.2909 17.3566C37.1379 18.907 51.8078 19.4061 52.4999 21.8939C53.1919 24.3817 41.4387 34.3672 40.7112 36.842C39.984 39.3169 44.0995 55.3212 42.2307 56.8377Z" fill="url(#paint0_linear_1_76)"/>
<defs>
<linearGradient id="paint0_linear_1_76" x1="6.72374e-05" y1="28.5" x2="52.5293" y2="28.5" gradientUnits="userSpaceOnUse">
<stop stop-color="#FCD635"/>
<stop offset="1" stop-color="#F7A928"/>
</linearGradient>
</defs>
</svg>
