<svg width="18" height="19" viewBox="0 0 18 19" fill="none" xmlns="http://www.w3.org/2000/svg">
<path d="M17.0128 8.30612C17.2275 8.30612 17.4335 8.18111 17.5853 7.95858C17.7371 7.73605 17.8224 7.43423 17.8224 7.11953V1.18659C17.8224 1.10887 17.8168 1.03055 17.8067 0.954017C17.8014 0.918419 17.7925 0.885788 17.7856 0.851377C17.7775 0.811626 17.7714 0.771283 17.7605 0.732719C17.7488 0.692375 17.733 0.654997 17.7184 0.617027C17.7075 0.587362 17.6986 0.55651 17.686 0.529219C17.6264 0.398813 17.5499 0.286754 17.4609 0.199347C17.4419 0.180955 17.4209 0.167903 17.401 0.151884C17.3751 0.131118 17.3496 0.10798 17.3221 0.090181C17.2958 0.0747553 17.2682 0.0652625 17.2411 0.0533966C17.2176 0.0433106 17.1954 0.0302581 17.1711 0.0225452C17.1189 0.00790697 17.0659 0.00035982 17.0128 0H12.9645C12.7498 0 12.5438 0.125015 12.392 0.347544C12.2401 0.570073 12.1548 0.871886 12.1548 1.18659C12.1548 1.50129 12.2401 1.8031 12.392 2.02563C12.5438 2.24816 12.7498 2.37318 12.9645 2.37318H15.0583L7.29688 13.7478L5.44033 11.027C5.2885 10.8045 5.08259 10.6796 4.8679 10.6796C4.65321 10.6796 4.44731 10.8045 4.29547 11.027L0.247179 16.9599C0.169849 17.0694 0.108167 17.2003 0.0657337 17.3451C0.0233003 17.4898 0.000964768 17.6455 3.05703e-05 17.8031C-0.000903627 17.9607 0.019582 18.1169 0.0602923 18.2627C0.101003 18.4086 0.161122 18.541 0.237143 18.6525C0.313164 18.7639 0.403565 18.852 0.503069 18.9116C0.602573 18.9713 0.709188 19.0013 0.816694 19C0.9242 18.9986 1.03044 18.9659 1.12923 18.9037C1.22801 18.8415 1.31735 18.7511 1.39204 18.6377L4.8679 13.5437L6.72445 16.2646C6.87628 16.487 7.08219 16.612 7.29688 16.612C7.51157 16.612 7.71748 16.487 7.86931 16.2646L16.2031 4.05101V7.11953C16.2031 7.43423 16.2884 7.73605 16.4403 7.95858C16.5921 8.18111 16.7981 8.30612 17.0128 8.30612Z" fill="url(#paint0_linear_22_511)"/>
<defs>
<linearGradient id="paint0_linear_22_511" x1="8.91122" y1="0" x2="8.91122" y2="19" gradientUnits="userSpaceOnUse">
<stop stop-color="#FFE603"/>
<stop offset="1" stop-color="#FF9900"/>
</linearGradient>
</defs>
</svg>
