<svg width="31" height="33" viewBox="0 0 31 33" fill="none" xmlns="http://www.w3.org/2000/svg">
<path d="M29.0787 30.9375H1.87605V26.8125H3.75209C4.00087 26.8125 4.23946 26.7039 4.41538 26.5105C4.59129 26.3171 4.69012 26.0548 4.69012 25.7812C4.69012 25.5077 4.59129 25.2454 4.41538 25.052C4.23946 24.8586 4.00087 24.75 3.75209 24.75H1.87605V21.6562C2.12483 21.6562 2.36342 21.5476 2.53933 21.3542C2.71524 21.1608 2.81407 20.8985 2.81407 20.625C2.81407 20.3515 2.71524 20.0892 2.53933 19.8958C2.36342 19.7024 2.12483 19.5938 1.87605 19.5938V16.5H3.75209C4.00087 16.5 4.23946 16.3914 4.41538 16.198C4.59129 16.0046 4.69012 15.7423 4.69012 15.4688C4.69012 15.1952 4.59129 14.9329 4.41538 14.7395C4.23946 14.5461 4.00087 14.4375 3.75209 14.4375H1.87605V11.3438C2.12483 11.3438 2.36342 11.2351 2.53933 11.0417C2.71524 10.8483 2.81407 10.586 2.81407 10.3125C2.81407 10.039 2.71524 9.77669 2.53933 9.5833C2.36342 9.3899 2.12483 9.28125 1.87605 9.28125V6.1875H3.75209C4.00087 6.1875 4.23946 6.07885 4.41538 5.88545C4.59129 5.69206 4.69012 5.42975 4.69012 5.15625C4.69012 4.88275 4.59129 4.62044 4.41538 4.42705C4.23946 4.23365 4.00087 4.125 3.75209 4.125H1.87605V1.03125C1.87605 0.757745 1.77722 0.495443 1.60131 0.302046C1.42539 0.108649 1.1868 0 0.938023 0C0.689244 0 0.450654 0.108649 0.274741 0.302046C0.0988272 0.495443 0 0.757745 0 1.03125L0 30.9375C0 32.075 0.841407 33 1.87605 33H29.0787C29.3275 33 29.5661 32.8914 29.742 32.698C29.9179 32.5046 30.0168 32.2423 30.0168 31.9688C30.0168 31.6952 29.9179 31.4329 29.742 31.2395C29.5661 31.0461 29.3275 30.9375 29.0787 30.9375Z" fill="url(#paint0_linear_22_415)"/>
<defs>
<linearGradient id="paint0_linear_22_415" x1="15.0084" y1="0" x2="15.0084" y2="33" gradientUnits="userSpaceOnUse">
<stop stop-color="#FFE603"/>
<stop offset="1" stop-color="#FF9900"/>
</linearGradient>
</defs>
</svg>
