<svg width="34" height="32" viewBox="0 0 34 32" fill="none" xmlns="http://www.w3.org/2000/svg">
<path d="M28.949 18.4318V30.4037C28.949 30.8361 28.8164 31.2102 28.5511 31.5261C28.2858 31.842 27.9716 32 27.6085 32H19.5655V22.4224H14.2034V32H6.16031C5.79726 32 5.48307 31.842 5.21776 31.5261C4.95245 31.2102 4.8198 30.8361 4.8198 30.4037V18.4318C4.8198 18.4152 4.82329 18.3902 4.83027 18.357C4.83725 18.3237 4.84074 18.2988 4.84074 18.2822L16.8844 6.45986L28.9281 18.2822C28.9421 18.3154 28.949 18.3653 28.949 18.4318ZM33.6199 16.7108L32.3213 18.5565C32.2096 18.7062 32.0629 18.7976 31.8814 18.8309H31.8186C31.6371 18.8309 31.4904 18.7727 31.3787 18.6563L16.8844 4.265L2.39012 18.6563C2.22255 18.7893 2.05499 18.8475 1.88742 18.8309C1.7059 18.7976 1.55928 18.7062 1.44757 18.5565L0.148946 16.7108C0.0372365 16.5446 -0.0116364 16.3492 0.00232728 16.1247C0.016291 15.9002 0.0930912 15.7215 0.232728 15.5885L15.2926 0.64848C15.7394 0.21616 16.27 0 16.8844 0C17.4988 0 18.0294 0.21616 18.4763 0.64848L23.587 5.73655V0.872954C23.587 0.640166 23.6498 0.448948 23.7755 0.299299C23.9012 0.149649 24.0618 0.0748246 24.2572 0.0748246H28.2788C28.4743 0.0748246 28.6349 0.149649 28.7605 0.299299C28.8862 0.448948 28.949 0.640166 28.949 0.872954V11.0491L33.5361 15.5885C33.6758 15.7215 33.7526 15.9002 33.7665 16.1247C33.7805 16.3492 33.7316 16.5446 33.6199 16.7108Z" fill="url(#paint0_linear_22_535)"/>
<defs>
<linearGradient id="paint0_linear_22_535" x1="16.8844" y1="0" x2="16.8844" y2="32" gradientUnits="userSpaceOnUse">
<stop stop-color="#00FF38"/>
<stop offset="1" stop-color="#00F0FF"/>
</linearGradient>
</defs>
</svg>
