<svg width="29" height="37" viewBox="0 0 29 37" fill="none" xmlns="http://www.w3.org/2000/svg">
<path d="M27.2613 34.6875H1.75879V30.0625H3.51759C3.75082 30.0625 3.9745 29.9407 4.13942 29.7238C4.30433 29.507 4.39698 29.2129 4.39698 28.9062C4.39698 28.5996 4.30433 28.3055 4.13942 28.0887C3.9745 27.8718 3.75082 27.75 3.51759 27.75H1.75879V24.2812C1.99202 24.2812 2.2157 24.1594 2.38062 23.9426C2.54554 23.7258 2.63819 23.4317 2.63819 23.125C2.63819 22.8183 2.54554 22.5242 2.38062 22.3074C2.2157 22.0906 1.99202 21.9688 1.75879 21.9688V18.5H3.51759C3.75082 18.5 3.9745 18.3782 4.13942 18.1613C4.30433 17.9445 4.39698 17.6504 4.39698 17.3438C4.39698 17.0371 4.30433 16.743 4.13942 16.5262C3.9745 16.3093 3.75082 16.1875 3.51759 16.1875H1.75879V12.7188C1.99202 12.7188 2.2157 12.5969 2.38062 12.3801C2.54554 12.1633 2.63819 11.8692 2.63819 11.5625C2.63819 11.2558 2.54554 10.9617 2.38062 10.7449C2.2157 10.5281 1.99202 10.4062 1.75879 10.4062V6.9375H3.51759C3.75082 6.9375 3.9745 6.81568 4.13942 6.59884C4.30433 6.382 4.39698 6.08791 4.39698 5.78125C4.39698 5.47459 4.30433 5.1805 4.13942 4.96366C3.9745 4.74682 3.75082 4.625 3.51759 4.625H1.75879V1.15625C1.75879 0.849593 1.66614 0.555497 1.50122 0.338658C1.33631 0.121819 1.11263 0 0.879397 0C0.646166 0 0.422488 0.121819 0.257569 0.338658C0.0926505 0.555497 0 0.849593 0 1.15625L0 34.6875C0 35.9628 0.788819 37 1.75879 37H27.2613C27.4945 37 27.7182 36.8782 27.8831 36.6613C28.0481 36.4445 28.1407 36.1504 28.1407 35.8438C28.1407 35.5371 28.0481 35.243 27.8831 35.0262C27.7182 34.8093 27.4945 34.6875 27.2613 34.6875Z" fill="url(#paint0_linear_22_459)"/>
<defs>
<linearGradient id="paint0_linear_22_459" x1="14.0704" y1="0" x2="14.0704" y2="37" gradientUnits="userSpaceOnUse">
<stop stop-color="#FFE603"/>
<stop offset="1" stop-color="#FF9900"/>
</linearGradient>
</defs>
</svg>
