<svg width="35" height="30" viewBox="0 0 35 30" fill="none" xmlns="http://www.w3.org/2000/svg">
<path d="M29.7532 17.2798V28.5035C29.7532 28.9088 29.6168 29.2595 29.3442 29.5557C29.0715 29.8519 28.7486 30 28.3754 30H20.1089V21.021H14.5979V30H6.33143C5.95829 30 5.63538 29.8519 5.3627 29.5557C5.09002 29.2595 4.95368 28.9088 4.95368 28.5035V17.2798C4.95368 17.2642 4.95727 17.2408 4.96445 17.2097C4.97162 17.1785 4.97521 17.1551 4.97521 17.1395L17.3534 6.05612L29.7317 17.1395C29.746 17.1707 29.7532 17.2175 29.7532 17.2798ZM34.5538 15.6664L33.2191 17.3967C33.1043 17.537 32.9536 17.6228 32.767 17.6539H32.7024C32.5159 17.6539 32.3652 17.5994 32.2504 17.4903L17.3534 3.99844L2.45651 17.4903C2.28429 17.615 2.11207 17.6695 1.93985 17.6539C1.75328 17.6228 1.60259 17.537 1.48778 17.3967L0.153083 15.6664C0.0382708 15.5105 -0.0119596 15.3274 0.00239193 15.1169C0.0167435 14.9065 0.0956771 14.7389 0.239193 14.6142L15.7174 0.60795C16.1766 0.20265 16.722 0 17.3534 0C17.9849 0 18.5303 0.20265 18.9895 0.60795L24.2422 5.37802V0.818394C24.2422 0.600156 24.3068 0.420889 24.4359 0.280592C24.5651 0.140296 24.7301 0.0701481 24.9311 0.0701481H29.0643C29.2652 0.0701481 29.4303 0.140296 29.5594 0.280592C29.6886 0.420889 29.7532 0.600156 29.7532 0.818394V10.3585L34.4677 14.6142C34.6112 14.7389 34.6901 14.9065 34.7045 15.1169C34.7188 15.3274 34.6686 15.5105 34.5538 15.6664Z" fill="url(#paint0_linear_22_439)"/>
<defs>
<linearGradient id="paint0_linear_22_439" x1="17.3534" y1="0" x2="17.3534" y2="30" gradientUnits="userSpaceOnUse">
<stop stop-color="#00FF38"/>
<stop offset="1" stop-color="#00F0FF"/>
</linearGradient>
</defs>
</svg>
