<svg width="28" height="30" viewBox="0 0 28 30" fill="none" xmlns="http://www.w3.org/2000/svg">
<path d="M26.3526 28.125H1.70017V24.375H3.40034C3.62579 24.375 3.84201 24.2762 4.00143 24.1004C4.16086 23.9246 4.25042 23.6861 4.25042 23.4375C4.25042 23.1889 4.16086 22.9504 4.00143 22.7746C3.84201 22.5988 3.62579 22.5 3.40034 22.5H1.70017V19.6875C1.92562 19.6875 2.14185 19.5887 2.30127 19.4129C2.46069 19.2371 2.55025 18.9986 2.55025 18.75C2.55025 18.5014 2.46069 18.2629 2.30127 18.0871C2.14185 17.9113 1.92562 17.8125 1.70017 17.8125V15H3.40034C3.62579 15 3.84201 14.9012 4.00143 14.7254C4.16086 14.5496 4.25042 14.3111 4.25042 14.0625C4.25042 13.8139 4.16086 13.5754 4.00143 13.3996C3.84201 13.2238 3.62579 13.125 3.40034 13.125H1.70017V10.3125C1.92562 10.3125 2.14185 10.2137 2.30127 10.0379C2.46069 9.8621 2.55025 9.62364 2.55025 9.375C2.55025 9.12636 2.46069 8.8879 2.30127 8.71209C2.14185 8.53627 1.92562 8.4375 1.70017 8.4375V5.625H3.40034C3.62579 5.625 3.84201 5.52623 4.00143 5.35041C4.16086 5.1746 4.25042 4.93614 4.25042 4.6875C4.25042 4.43886 4.16086 4.2004 4.00143 4.02459C3.84201 3.84877 3.62579 3.75 3.40034 3.75H1.70017V0.9375C1.70017 0.68886 1.61061 0.450403 1.45118 0.274587C1.29176 0.0987721 1.07554 0 0.850084 0C0.624628 0 0.408405 0.0987721 0.248984 0.274587C0.0895622 0.450403 0 0.68886 0 0.9375L0 28.125C0 29.1591 0.762525 30 1.70017 30H26.3526C26.5781 30 26.7943 29.9012 26.9537 29.7254C27.1131 29.5496 27.2027 29.3111 27.2027 29.0625C27.2027 28.8139 27.1131 28.5754 26.9537 28.3996C26.7943 28.2238 26.5781 28.125 26.3526 28.125Z" fill="url(#paint0_linear_22_166)"/>
<defs>
<linearGradient id="paint0_linear_22_166" x1="13.6013" y1="0" x2="13.6013" y2="30" gradientUnits="userSpaceOnUse">
<stop stop-color="#FFE603"/>
<stop offset="1" stop-color="#FF9900"/>
</linearGradient>
</defs>
</svg>
