<svg width="18" height="16" viewBox="0 0 18 16" fill="none" xmlns="http://www.w3.org/2000/svg">
<path d="M17.0128 6.99463C17.2275 6.99463 17.4335 6.88935 17.5853 6.70196C17.7371 6.51457 17.8224 6.26041 17.8224 5.9954V0.999233C17.8224 0.933783 17.8168 0.867833 17.8067 0.803383C17.8014 0.773406 17.7925 0.745927 17.7856 0.716949C17.7775 0.683475 17.7714 0.649501 17.7605 0.617026C17.7488 0.583052 17.733 0.551577 17.7184 0.519601C17.7075 0.494621 17.6986 0.46864 17.686 0.445658C17.6264 0.335843 17.5499 0.241477 17.4609 0.167871C17.4419 0.152383 17.4209 0.141392 17.401 0.127902C17.3751 0.110415 17.3496 0.0909304 17.3221 0.0759419C17.2958 0.0629519 17.2682 0.0549579 17.2411 0.0449655C17.2176 0.0364721 17.1954 0.0254805 17.1711 0.0189855C17.1189 0.0066585 17.0659 0.000303006 17.0128 0H12.9645C12.7498 0 12.5438 0.105276 12.392 0.292669C12.2401 0.480061 12.1548 0.73422 12.1548 0.999233C12.1548 1.26425 12.2401 1.5184 12.392 1.7058C12.5438 1.89319 12.7498 1.99847 12.9645 1.99847H15.0583L7.29688 11.5771L5.44033 9.28587C5.2885 9.09854 5.08259 8.99331 4.8679 8.99331C4.65321 8.99331 4.44731 9.09854 4.29547 9.28587L0.247179 14.282C0.169849 14.3742 0.108167 14.4845 0.0657337 14.6064C0.0233003 14.7283 0.000964768 14.8594 3.05703e-05 14.9921C-0.000903627 15.1248 0.019582 15.2563 0.0602923 15.3791C0.101003 15.5019 0.161122 15.6135 0.237143 15.7073C0.313164 15.8012 0.403565 15.8753 0.503069 15.9256C0.602573 15.9758 0.709188 16.0011 0.816694 16C0.9242 15.9988 1.03044 15.9712 1.12923 15.9189C1.22801 15.8665 1.31735 15.7904 1.39204 15.6949L4.8679 11.4052L6.72445 13.6965C6.87628 13.8838 7.08219 13.989 7.29688 13.989C7.51157 13.989 7.71748 13.8838 7.86931 13.6965L16.2031 3.41138V5.9954C16.2031 6.26041 16.2884 6.51457 16.4403 6.70196C16.5921 6.88935 16.7981 6.99463 17.0128 6.99463Z" fill="url(#paint0_linear_22_153)"/>
<defs>
<linearGradient id="paint0_linear_22_153" x1="8.91122" y1="0" x2="8.91122" y2="16" gradientUnits="userSpaceOnUse">
<stop stop-color="#FFE603"/>
<stop offset="1" stop-color="#FF9900"/>
</linearGradient>
</defs>
</svg>
