<svg width="31" height="31" viewBox="0 0 31 31" fill="none" xmlns="http://www.w3.org/2000/svg">
<path d="M29.0787 29.0625H1.87605V25.1875H3.75209C4.00087 25.1875 4.23946 25.0854 4.41538 24.9038C4.59129 24.7221 4.69012 24.4757 4.69012 24.2188C4.69012 23.9618 4.59129 23.7154 4.41538 23.5337C4.23946 23.3521 4.00087 23.25 3.75209 23.25H1.87605V20.3438C2.12483 20.3438 2.36342 20.2417 2.53933 20.06C2.71524 19.8783 2.81407 19.6319 2.81407 19.375C2.81407 19.1181 2.71524 18.8717 2.53933 18.69C2.36342 18.5083 2.12483 18.4062 1.87605 18.4062V15.5H3.75209C4.00087 15.5 4.23946 15.3979 4.41538 15.2163C4.59129 15.0346 4.69012 14.7882 4.69012 14.5312C4.69012 14.2743 4.59129 14.0279 4.41538 13.8462C4.23946 13.6646 4.00087 13.5625 3.75209 13.5625H1.87605V10.6562C2.12483 10.6562 2.36342 10.5542 2.53933 10.3725C2.71524 10.1908 2.81407 9.94443 2.81407 9.6875C2.81407 9.43057 2.71524 9.18417 2.53933 9.00249C2.36342 8.82081 2.12483 8.71875 1.87605 8.71875V5.8125H3.75209C4.00087 5.8125 4.23946 5.71044 4.41538 5.52876C4.59129 5.34708 4.69012 5.10068 4.69012 4.84375C4.69012 4.58682 4.59129 4.34042 4.41538 4.15874C4.23946 3.97706 4.00087 3.875 3.75209 3.875H1.87605V0.96875C1.87605 0.711822 1.77722 0.465416 1.60131 0.28374C1.42539 0.102064 1.1868 0 0.938023 0C0.689244 0 0.450654 0.102064 0.274741 0.28374C0.0988272 0.465416 0 0.711822 0 0.96875L0 29.0625C0 30.131 0.841407 31 1.87605 31H29.0787C29.3275 31 29.5661 30.8979 29.742 30.7163C29.9179 30.5346 30.0168 30.2882 30.0168 30.0312C30.0168 29.7743 29.9179 29.5279 29.742 29.3462C29.5661 29.1646 29.3275 29.0625 29.0787 29.0625Z" fill="url(#paint0_linear_22_23)"/>
<defs>
<linearGradient id="paint0_linear_22_23" x1="15.0084" y1="0" x2="15.0084" y2="31" gradientUnits="userSpaceOnUse">
<stop stop-color="#FFE603"/>
<stop offset="1" stop-color="#FF9900"/>
</linearGradient>
</defs>
</svg>
