<svg width="35" height="34" viewBox="0 0 35 34" fill="none" xmlns="http://www.w3.org/2000/svg">
<path d="M29.7532 19.5838V32.304C29.7532 32.7633 29.6168 33.1608 29.3442 33.4965C29.0715 33.8322 28.7486 34 28.3754 34H20.1089V23.8238H14.5979V34H6.33143C5.95829 34 5.63538 33.8322 5.3627 33.4965C5.09002 33.1608 4.95368 32.7633 4.95368 32.304V19.5838C4.95368 19.5661 4.95727 19.5396 4.96445 19.5043C4.97162 19.469 4.97521 19.4425 4.97521 19.4248L17.3534 6.8636L29.7317 19.4248C29.746 19.4601 29.7532 19.5131 29.7532 19.5838ZM34.5538 17.7553L33.2191 19.7163C33.1043 19.8753 32.9536 19.9725 32.767 20.0078H32.7024C32.5159 20.0078 32.3652 19.946 32.2504 19.8223L17.3534 4.53157L2.45651 19.8223C2.28429 19.9636 2.11207 20.0255 1.93985 20.0078C1.75328 19.9725 1.60259 19.8753 1.48778 19.7163L0.153083 17.7553C0.0382708 17.5786 -0.0119596 17.371 0.00239193 17.1325C0.0167435 16.894 0.0956771 16.7041 0.239193 16.5627L15.7174 0.68901C16.1766 0.22967 16.722 0 17.3534 0C17.9849 0 18.5303 0.22967 18.9895 0.68901L24.2422 6.09509V0.927514C24.2422 0.680177 24.3068 0.477007 24.4359 0.318005C24.5651 0.159002 24.7301 0.0795012 24.9311 0.0795012H29.0643C29.2652 0.0795012 29.4303 0.159002 29.5594 0.318005C29.6886 0.477007 29.7532 0.680177 29.7532 0.927514V11.7397L34.4677 16.5627C34.6112 16.7041 34.6901 16.894 34.7045 17.1325C34.7188 17.371 34.6686 17.5786 34.5538 17.7553Z" fill="url(#paint0_linear_22_340)"/>
<defs>
<linearGradient id="paint0_linear_22_340" x1="17.3534" y1="0" x2="17.3534" y2="34" gradientUnits="userSpaceOnUse">
<stop stop-color="#00FF38"/>
<stop offset="1" stop-color="#00F0FF"/>
</linearGradient>
</defs>
</svg>
