<svg width="28" height="34" viewBox="0 0 28 34" fill="none" xmlns="http://www.w3.org/2000/svg">
<path d="M26.3526 31.875H1.70017V27.625H3.40034C3.62579 27.625 3.84201 27.5131 4.00143 27.3138C4.16086 27.1145 4.25042 26.8443 4.25042 26.5625C4.25042 26.2807 4.16086 26.0105 4.00143 25.8112C3.84201 25.6119 3.62579 25.5 3.40034 25.5H1.70017V22.3125C1.92562 22.3125 2.14185 22.2006 2.30127 22.0013C2.46069 21.802 2.55025 21.5318 2.55025 21.25C2.55025 20.9682 2.46069 20.698 2.30127 20.4987C2.14185 20.2994 1.92562 20.1875 1.70017 20.1875V17H3.40034C3.62579 17 3.84201 16.8881 4.00143 16.6888C4.16086 16.4895 4.25042 16.2193 4.25042 15.9375C4.25042 15.6557 4.16086 15.3855 4.00143 15.1862C3.84201 14.9869 3.62579 14.875 3.40034 14.875H1.70017V11.6875C1.92562 11.6875 2.14185 11.5756 2.30127 11.3763C2.46069 11.177 2.55025 10.9068 2.55025 10.625C2.55025 10.3432 2.46069 10.073 2.30127 9.8737C2.14185 9.67444 1.92562 9.5625 1.70017 9.5625V6.375H3.40034C3.62579 6.375 3.84201 6.26306 4.00143 6.0638C4.16086 5.86454 4.25042 5.59429 4.25042 5.3125C4.25042 5.03071 4.16086 4.76046 4.00143 4.5612C3.84201 4.36194 3.62579 4.25 3.40034 4.25H1.70017V1.0625C1.70017 0.780707 1.61061 0.510456 1.45118 0.311199C1.29176 0.111942 1.07554 0 0.850084 0C0.624628 0 0.408405 0.111942 0.248984 0.311199C0.0895622 0.510456 0 0.780707 0 1.0625L0 31.875C0 33.0469 0.762525 34 1.70017 34H26.3526C26.5781 34 26.7943 33.8881 26.9537 33.6888C27.1131 33.4895 27.2027 33.2193 27.2027 32.9375C27.2027 32.6557 27.1131 32.3855 26.9537 32.1862C26.7943 31.9869 26.5781 31.875 26.3526 31.875Z" fill="url(#paint0_linear_22_429)"/>
<defs>
<linearGradient id="paint0_linear_22_429" x1="13.6013" y1="0" x2="13.6013" y2="34" gradientUnits="userSpaceOnUse">
<stop stop-color="#FFE603"/>
<stop offset="1" stop-color="#FF9900"/>
</linearGradient>
</defs>
</svg>
