<svg width="19" height="16" viewBox="0 0 19 16" fill="none" xmlns="http://www.w3.org/2000/svg">
<path d="M17.9082 6.99463C18.1342 6.99463 18.351 6.88935 18.5108 6.70196C18.6707 6.51457 18.7605 6.26041 18.7605 5.9954V0.999233C18.7605 0.933783 18.7545 0.867833 18.7438 0.803383C18.7383 0.773406 18.7289 0.745927 18.7217 0.716949C18.7132 0.683475 18.7068 0.649501 18.6953 0.617026C18.6829 0.583052 18.6663 0.551577 18.651 0.519601C18.6394 0.494621 18.6301 0.46864 18.6169 0.445658C18.5541 0.335843 18.4736 0.241477 18.3799 0.167871C18.3599 0.152383 18.3377 0.141392 18.3169 0.127902C18.2896 0.110415 18.2627 0.0909304 18.2338 0.0759419C18.2061 0.0629519 18.1771 0.0549579 18.1485 0.0449655C18.1238 0.0364721 18.1004 0.0254805 18.0748 0.0189855C18.0199 0.0066585 17.9641 0.000303006 17.9082 0H13.6468C13.4208 0 13.204 0.105276 13.0442 0.292669C12.8844 0.480061 12.7946 0.73422 12.7946 0.999233C12.7946 1.26425 12.8844 1.5184 13.0442 1.7058C13.204 1.89319 13.4208 1.99847 13.6468 1.99847H15.8508L7.68093 11.5771L5.72666 9.28587C5.56684 9.09854 5.3501 8.99331 5.12411 8.99331C4.89812 8.99331 4.68138 9.09854 4.52155 9.28587L0.260189 14.282C0.178788 14.3742 0.11386 14.4845 0.0691933 14.6064C0.0245266 14.7283 0.00101555 14.8594 3.21793e-05 14.9921C-0.000951187 15.1248 0.0206126 15.2563 0.0634656 15.3791C0.106319 15.5019 0.169603 15.6135 0.249625 15.7073C0.329647 15.8012 0.424805 15.8753 0.529546 15.9256C0.634287 15.9758 0.746514 16.0011 0.859678 16C0.972843 15.9988 1.08468 15.9712 1.18866 15.9189C1.29264 15.8665 1.38668 15.7904 1.4653 15.6949L5.12411 11.4052L7.07837 13.6965C7.23819 13.8838 7.45493 13.989 7.68093 13.989C7.90692 13.989 8.12366 13.8838 8.28348 13.6965L17.0559 3.41138V5.9954C17.0559 6.26041 17.1457 6.51457 17.3055 6.70196C17.4654 6.88935 17.6822 6.99463 17.9082 6.99463Z" fill="url(#paint0_linear_22_187)"/>
<defs>
<linearGradient id="paint0_linear_22_187" x1="9.38023" y1="0" x2="9.38023" y2="16" gradientUnits="userSpaceOnUse">
<stop stop-color="#FFE603"/>
<stop offset="1" stop-color="#FF9900"/>
</linearGradient>
</defs>
</svg>
