<svg width="18" height="18" viewBox="0 0 18 18" fill="none" xmlns="http://www.w3.org/2000/svg">
<path d="M17.0128 7.86896C17.2275 7.86896 17.4335 7.75052 17.5853 7.5397C17.7371 7.32889 17.8224 7.04296 17.8224 6.74482V1.12414C17.8224 1.05051 17.8168 0.976312 17.8067 0.903806C17.8014 0.870082 17.7925 0.839168 17.7856 0.806568C17.7775 0.768909 17.7714 0.730689 17.7605 0.694155C17.7488 0.655934 17.733 0.620524 17.7184 0.584552C17.7075 0.556448 17.6986 0.52722 17.686 0.501365C17.6264 0.377823 17.5499 0.271662 17.4609 0.188855C17.4419 0.171431 17.4209 0.159066 17.401 0.14389C17.3751 0.124217 17.3496 0.102297 17.3221 0.0854346C17.2958 0.0708208 17.2682 0.0618276 17.2411 0.0505862C17.2176 0.0410311 17.1954 0.0286655 17.1711 0.0213587C17.1189 0.00749082 17.0659 0.000340882 17.0128 0H12.9645C12.7498 0 12.5438 0.118436 12.392 0.329252C12.2401 0.540069 12.1548 0.825997 12.1548 1.12414C12.1548 1.42228 12.2401 1.7082 12.392 1.91902C12.5438 2.12984 12.7498 2.24827 12.9645 2.24827H15.0583L7.29688 13.0242L5.44033 10.4466C5.2885 10.2359 5.08259 10.1175 4.8679 10.1175C4.65321 10.1175 4.44731 10.2359 4.29547 10.4466L0.247179 16.0673C0.169849 16.171 0.108167 16.295 0.0657337 16.4322C0.0233003 16.5693 0.000964768 16.7168 3.05703e-05 16.8661C-0.000903627 17.0154 0.019582 17.1634 0.0602923 17.3015C0.101003 17.4397 0.161122 17.5652 0.237143 17.6707C0.313164 17.7763 0.403565 17.8598 0.503069 17.9163C0.602573 17.9728 0.709188 18.0013 0.816694 18C0.9242 17.9987 1.03044 17.9676 1.12923 17.9087C1.22801 17.8498 1.31735 17.7642 1.39204 17.6568L4.8679 12.8309L6.72445 15.4085C6.87628 15.6193 7.08219 15.7377 7.29688 15.7377C7.51157 15.7377 7.71748 15.6193 7.86931 15.4085L16.2031 3.8378V6.74482C16.2031 7.04296 16.2884 7.32889 16.4403 7.5397C16.5921 7.75052 16.7981 7.86896 17.0128 7.86896Z" fill="url(#paint0_linear_22_98)"/>
<defs>
<linearGradient id="paint0_linear_22_98" x1="8.91122" y1="0" x2="8.91122" y2="18" gradientUnits="userSpaceOnUse">
<stop stop-color="#FFE603"/>
<stop offset="1" stop-color="#FF9900"/>
</linearGradient>
</defs>
</svg>
