<svg width="19" height="19" viewBox="0 0 19 19" fill="none" xmlns="http://www.w3.org/2000/svg">
<path d="M17.9082 8.30612C18.1342 8.30612 18.351 8.18111 18.5108 7.95858C18.6707 7.73605 18.7605 7.43423 18.7605 7.11953V1.18659C18.7605 1.10887 18.7545 1.03055 18.7438 0.954017C18.7383 0.918419 18.7289 0.885788 18.7217 0.851377C18.7132 0.811626 18.7068 0.771283 18.6953 0.732719C18.6829 0.692375 18.6663 0.654997 18.651 0.617027C18.6394 0.587362 18.6301 0.55651 18.6169 0.529219C18.5541 0.398813 18.4736 0.286754 18.3799 0.199347C18.3599 0.180955 18.3377 0.167903 18.3169 0.151884C18.2896 0.131118 18.2627 0.10798 18.2338 0.090181C18.2061 0.0747553 18.1771 0.0652625 18.1485 0.0533966C18.1238 0.0433106 18.1004 0.0302581 18.0748 0.0225452C18.0199 0.00790697 17.9641 0.00035982 17.9082 0H13.6468C13.4208 0 13.204 0.125015 13.0442 0.347544C12.8844 0.570073 12.7946 0.871886 12.7946 1.18659C12.7946 1.50129 12.8844 1.8031 13.0442 2.02563C13.204 2.24816 13.4208 2.37318 13.6468 2.37318H15.8508L7.68093 13.7478L5.72666 11.027C5.56684 10.8045 5.3501 10.6796 5.12411 10.6796C4.89812 10.6796 4.68138 10.8045 4.52155 11.027L0.260189 16.9599C0.178788 17.0694 0.11386 17.2003 0.0691933 17.3451C0.0245266 17.4898 0.00101555 17.6455 3.21793e-05 17.8031C-0.000951187 17.9607 0.0206126 18.1169 0.0634656 18.2627C0.106319 18.4086 0.169603 18.541 0.249625 18.6525C0.329647 18.7639 0.424805 18.852 0.529546 18.9116C0.634287 18.9713 0.746514 19.0013 0.859678 19C0.972843 18.9986 1.08468 18.9659 1.18866 18.9037C1.29264 18.8415 1.38668 18.7511 1.4653 18.6377L5.12411 13.5437L7.07837 16.2646C7.23819 16.487 7.45493 16.612 7.68093 16.612C7.90692 16.612 8.12366 16.487 8.28348 16.2646L17.0559 4.05101V7.11953C17.0559 7.43423 17.1457 7.73605 17.3055 7.95858C17.4654 8.18111 17.6822 8.30612 17.9082 8.30612Z" fill="url(#paint0_linear_22_491)"/>
<defs>
<linearGradient id="paint0_linear_22_491" x1="9.38023" y1="0" x2="9.38023" y2="19" gradientUnits="userSpaceOnUse">
<stop stop-color="#FFE603"/>
<stop offset="1" stop-color="#FF9900"/>
</linearGradient>
</defs>
</svg>
