<svg width="28" height="32" viewBox="0 0 28 32" fill="none" xmlns="http://www.w3.org/2000/svg">
<path d="M26.3526 30H1.70017V26H3.40034C3.62579 26 3.84201 25.8946 4.00143 25.7071C4.16086 25.5196 4.25042 25.2652 4.25042 25C4.25042 24.7348 4.16086 24.4804 4.00143 24.2929C3.84201 24.1054 3.62579 24 3.40034 24H1.70017V21C1.92562 21 2.14185 20.8946 2.30127 20.7071C2.46069 20.5196 2.55025 20.2652 2.55025 20C2.55025 19.7348 2.46069 19.4804 2.30127 19.2929C2.14185 19.1054 1.92562 19 1.70017 19V16H3.40034C3.62579 16 3.84201 15.8946 4.00143 15.7071C4.16086 15.5196 4.25042 15.2652 4.25042 15C4.25042 14.7348 4.16086 14.4804 4.00143 14.2929C3.84201 14.1054 3.62579 14 3.40034 14H1.70017V11C1.92562 11 2.14185 10.8946 2.30127 10.7071C2.46069 10.5196 2.55025 10.2652 2.55025 10C2.55025 9.73478 2.46069 9.48043 2.30127 9.29289C2.14185 9.10536 1.92562 9 1.70017 9V6H3.40034C3.62579 6 3.84201 5.89464 4.00143 5.70711C4.16086 5.51957 4.25042 5.26522 4.25042 5C4.25042 4.73478 4.16086 4.48043 4.00143 4.29289C3.84201 4.10536 3.62579 4 3.40034 4H1.70017V1C1.70017 0.734784 1.61061 0.48043 1.45118 0.292893C1.29176 0.105357 1.07554 0 0.850084 0C0.624628 0 0.408405 0.105357 0.248984 0.292893C0.0895622 0.48043 0 0.734784 0 1L0 30C0 31.103 0.762525 32 1.70017 32H26.3526C26.5781 32 26.7943 31.8946 26.9537 31.7071C27.1131 31.5196 27.2027 31.2652 27.2027 31C27.2027 30.7348 27.1131 30.4804 26.9537 30.2929C26.7943 30.1054 26.5781 30 26.3526 30Z" fill="url(#paint0_linear_22_540)"/>
<defs>
<linearGradient id="paint0_linear_22_540" x1="13.6013" y1="0" x2="13.6013" y2="32" gradientUnits="userSpaceOnUse">
<stop stop-color="#FFE603"/>
<stop offset="1" stop-color="#FF9900"/>
</linearGradient>
</defs>
</svg>
