<svg width="19" height="18" viewBox="0 0 19 18" fill="none" xmlns="http://www.w3.org/2000/svg">
<path d="M17.9082 7.86896C18.1342 7.86896 18.351 7.75052 18.5108 7.5397C18.6707 7.32889 18.7605 7.04296 18.7605 6.74482V1.12414C18.7605 1.05051 18.7545 0.976312 18.7438 0.903806C18.7383 0.870082 18.7289 0.839168 18.7217 0.806568C18.7132 0.768909 18.7068 0.730689 18.6953 0.694155C18.6829 0.655934 18.6663 0.620524 18.651 0.584552C18.6394 0.556448 18.6301 0.52722 18.6169 0.501365C18.5541 0.377823 18.4736 0.271662 18.3799 0.188855C18.3599 0.171431 18.3377 0.159066 18.3169 0.14389C18.2896 0.124217 18.2627 0.102297 18.2338 0.0854346C18.2061 0.0708208 18.1771 0.0618276 18.1485 0.0505862C18.1238 0.0410311 18.1004 0.0286655 18.0748 0.0213587C18.0199 0.00749082 17.9641 0.000340882 17.9082 0H13.6468C13.4208 0 13.204 0.118436 13.0442 0.329252C12.8844 0.540069 12.7946 0.825997 12.7946 1.12414C12.7946 1.42228 12.8844 1.7082 13.0442 1.91902C13.204 2.12984 13.4208 2.24827 13.6468 2.24827H15.8508L7.68093 13.0242L5.72666 10.4466C5.56684 10.2359 5.3501 10.1175 5.12411 10.1175C4.89812 10.1175 4.68138 10.2359 4.52155 10.4466L0.260189 16.0673C0.178788 16.171 0.11386 16.295 0.0691933 16.4322C0.0245266 16.5693 0.00101555 16.7168 3.21793e-05 16.8661C-0.000951187 17.0154 0.0206126 17.1634 0.0634656 17.3015C0.106319 17.4397 0.169603 17.5652 0.249625 17.6707C0.329647 17.7763 0.424805 17.8598 0.529546 17.9163C0.634287 17.9728 0.746514 18.0013 0.859678 18C0.972843 17.9987 1.08468 17.9676 1.18866 17.9087C1.29264 17.8498 1.38668 17.7642 1.4653 17.6568L5.12411 12.8309L7.07837 15.4085C7.23819 15.6193 7.45493 15.7377 7.68093 15.7377C7.90692 15.7377 8.12366 15.6193 8.28348 15.4085L17.0559 3.8378V6.74482C17.0559 7.04296 17.1457 7.32889 17.3055 7.5397C17.4654 7.75052 17.6822 7.86896 17.9082 7.86896Z" fill="url(#paint0_linear_22_396)"/>
<defs>
<linearGradient id="paint0_linear_22_396" x1="9.38023" y1="0" x2="9.38023" y2="18" gradientUnits="userSpaceOnUse">
<stop stop-color="#FFE603"/>
<stop offset="1" stop-color="#FF9900"/>
</linearGradient>
</defs>
</svg>
