<svg width="829" height="120" viewBox="0 0 829 120" fill="none" xmlns="http://www.w3.org/2000/svg">
<path d="M2 31.4317C8.08015 31.4317 17.4185 34.0605 21.8253 39.0261C30.0335 48.2753 38.6073 55.3191 47.9677 62.7936C60.3152 72.6532 74.5368 80.0172 88.4247 87.5455C95.0891 91.1581 104.343 96.5813 112.215 95.1399C116.966 94.2699 121.299 92.1865 126.194 92.1865C134.496 92.1865 139.851 96.8152 147.161 98.5151C157.915 101.016 168.282 103.201 179.285 104.211C188.318 105.04 196.125 107.375 205.226 107.375C210.419 107.375 214.724 105.136 219.742 103.859C229.692 101.327 240.431 98.8393 250.656 98.5151C257.874 98.2863 264.539 93.9345 272.43 96.6869C280.869 99.6303 288.587 104.361 297.027 107.305C305.968 110.423 315.674 107.016 324.715 109.625C329.75 111.079 334.649 117.078 339.5 117.501C345.853 118.055 353.706 118.371 360.065 117.22C377.474 114.067 383.062 92.8831 398.169 85.8579C409.319 80.6729 420.32 76.6489 432.376 73.06C436.939 71.702 444.1 71.2338 448.102 68.8409C452.102 66.4494 459.346 63.291 464.097 63.0748C475.408 62.5603 484.637 67.0217 495.347 69.2628C501.026 70.4514 514.759 73.3615 520.28 69.8957C523.815 67.6764 527.054 67.0971 530.629 65.325C534.418 63.4472 536.43 59.3917 540.038 57.7307C541.678 56.9755 542.064 55.2799 542.726 53.7225C543.29 52.3942 546.453 51.6054 547.632 51.0505C551.303 49.3217 554.534 46.6204 558.452 46.6204C571.645 46.6204 583.213 47.4215 593.532 37.7603C598.301 33.2959 602.659 28.4861 608.317 25.1031C612.312 22.7145 622.446 21.8174 624.917 17.5088C627.374 13.2232 635.083 9.91441 639.5 9.91441C644.647 9.91441 649.116 10.7495 653.747 13.4303C657.826 15.791 662.854 20.0402 667.591 20.0402C671.396 20.0402 673.456 21.5154 677 19.7589C680.738 17.9063 683.648 16.0807 687.618 14.696C692.362 13.0414 696.254 9.82111 700.992 8.08614C705.489 6.4392 708.486 6.58547 712.685 3.6561C720.286 -1.64559 731.264 7.06348 736.812 11.813C739.186 13.8452 740.56 17.7002 742.323 20.3215C744.819 24.0329 748.132 26.903 749.849 31.1505C753.077 39.1317 764.952 34.3246 769.876 32.4162C772.957 31.2223 773.107 27.6346 776.798 27.6346C781.377 27.6346 782.482 28.4336 785.266 31.9943C787.319 34.619 790.198 33.9632 793.129 33.9632C797.592 33.9632 796.401 34.1164 798.64 37.1275C801.165 40.5241 801.73 44.2977 803.747 47.8861C805.37 50.7719 810.394 49.6072 812.753 51.402C814.487 52.7219 818.288 56.3064 820.011 57.0275C822.193 57.9408 826.039 57.2673 827 59.2777" stroke="black" stroke-width="3" stroke-linecap="round"/>
</svg>
