<svg width="19" height="14" viewBox="0 0 19 14" fill="none" xmlns="http://www.w3.org/2000/svg">
<path d="M17.9082 6.1203C18.1342 6.1203 18.351 6.02818 18.5108 5.86421C18.6707 5.70025 18.7605 5.47786 18.7605 5.24597V0.874328C18.7605 0.81706 18.7545 0.759354 18.7438 0.70296C18.7383 0.67673 18.7289 0.652686 18.7217 0.62733C18.7132 0.59804 18.7068 0.568314 18.6953 0.539898C18.6829 0.510171 18.6663 0.48263 18.651 0.454651C18.6394 0.432793 18.6301 0.41006 18.6169 0.389951C18.5541 0.293862 18.4736 0.211293 18.3799 0.146887C18.3599 0.133335 18.3377 0.123718 18.3169 0.111914C18.2896 0.0966135 18.2627 0.0795641 18.2338 0.0664491C18.2061 0.0550829 18.1771 0.0480881 18.1485 0.0393448C18.1238 0.0319131 18.1004 0.0222954 18.0748 0.0166123C18.0199 0.00582619 17.9641 0.000265131 17.9082 0H13.6468C13.4208 0 13.204 0.0921167 13.0442 0.256085C12.8844 0.420053 12.7946 0.642442 12.7946 0.874328C12.7946 1.10621 12.8844 1.3286 13.0442 1.49257C13.204 1.65654 13.4208 1.74866 13.6468 1.74866H15.8508L7.68093 10.13L5.72666 8.12513C5.56684 7.96122 5.3501 7.86914 5.12411 7.86914C4.89812 7.86914 4.68138 7.96122 4.52155 8.12513L0.260189 12.4968C0.178788 12.5774 0.11386 12.6739 0.0691933 12.7806C0.0245266 12.8873 0.00101555 13.002 3.21793e-05 13.1181C-0.000951187 13.2342 0.0206126 13.3493 0.0634656 13.4567C0.106319 13.5642 0.169603 13.6618 0.249625 13.7439C0.329647 13.826 0.424805 13.8909 0.529546 13.9349C0.634287 13.9789 0.746514 14.001 0.859678 14C0.972843 13.999 1.08468 13.9748 1.18866 13.929C1.29264 13.8832 1.38668 13.8166 1.4653 13.7331L5.12411 9.97958L7.07837 11.9844C7.23819 12.1483 7.45493 12.2404 7.68093 12.2404C7.90692 12.2404 8.12366 12.1483 8.28348 11.9844L17.0559 2.98496V5.24597C17.0559 5.47786 17.1457 5.70025 17.3055 5.86421C17.4654 6.02818 17.6822 6.1203 17.9082 6.1203Z" fill="url(#paint0_linear_22_167)"/>
<defs>
<linearGradient id="paint0_linear_22_167" x1="9.38023" y1="0" x2="9.38023" y2="14" gradientUnits="userSpaceOnUse">
<stop stop-color="#FFE603"/>
<stop offset="1" stop-color="#FF9900"/>
</linearGradient>
</defs>
</svg>
