<svg width="21" height="14" viewBox="0 0 21 14" fill="none" xmlns="http://www.w3.org/2000/svg">
<path d="M19.699 6.1203C19.9477 6.1203 20.1861 6.02818 20.3619 5.86421C20.5377 5.70025 20.6365 5.47786 20.6365 5.24597V0.874328C20.6365 0.81706 20.63 0.759354 20.6182 0.70296C20.6121 0.67673 20.6018 0.652686 20.5939 0.62733C20.5845 0.59804 20.5775 0.568314 20.5648 0.539898C20.5512 0.510171 20.5329 0.48263 20.516 0.454651C20.5034 0.432793 20.4931 0.41006 20.4785 0.389951C20.4095 0.293862 20.321 0.211293 20.2179 0.146887C20.1959 0.133335 20.1715 0.123718 20.1485 0.111914C20.1185 0.0966135 20.089 0.0795641 20.0571 0.0664491C20.0267 0.0550829 19.9948 0.0480881 19.9634 0.0393448C19.9362 0.0319131 19.9104 0.0222954 19.8823 0.0166123C19.8219 0.00582619 19.7605 0.000265131 19.699 0H15.0115C14.7629 0 14.5244 0.0921167 14.3486 0.256085C14.1728 0.420053 14.074 0.642442 14.074 0.874328C14.074 1.10621 14.1728 1.3286 14.3486 1.49257C14.5244 1.65654 14.7629 1.74866 15.0115 1.74866H17.4359L8.44902 10.13L6.29933 8.12513C6.12352 7.96122 5.88511 7.86914 5.63652 7.86914C5.38793 7.86914 5.14951 7.96122 4.97371 8.12513L0.286208 12.4968C0.196667 12.5774 0.125246 12.6739 0.0761127 12.7806C0.0269792 12.8873 0.0011171 13.002 3.53972e-05 13.1181C-0.00104631 13.2342 0.0226738 13.3493 0.0698122 13.4567C0.11695 13.5642 0.186563 13.6618 0.274587 13.7439C0.362612 13.826 0.467285 13.8909 0.582501 13.9349C0.697716 13.9789 0.821166 14.001 0.945646 14C1.07013 13.999 1.19315 13.9748 1.30752 13.929C1.4219 13.8832 1.52535 13.8166 1.61183 13.7331L5.63652 9.97958L7.78621 11.9844C7.96201 12.1483 8.20043 12.2404 8.44902 12.2404C8.69761 12.2404 8.93602 12.1483 9.11183 11.9844L18.7615 2.98496V5.24597C18.7615 5.47786 18.8603 5.70025 19.0361 5.86421C19.2119 6.02818 19.4504 6.1203 19.699 6.1203Z" fill="url(#paint0_linear_22_24)"/>
<defs>
<linearGradient id="paint0_linear_22_24" x1="10.3183" y1="0" x2="10.3183" y2="14" gradientUnits="userSpaceOnUse">
<stop stop-color="#FFE603"/>
<stop offset="1" stop-color="#FF9900"/>
</linearGradient>
</defs>
</svg>
